G04 Generated by Ultiboard 14.0 *
%FSLAX34Y34*%
%MOMM*%

%ADD10C,0.0001*%
%ADD11C,0.0100*%
%ADD12C,0.1000*%
%ADD13C,0.0010*%
%ADD14C,0.1270*%


G04 ColorRGB 000000 for the following layer *
%LNDrill Symbols-Copper Top-Copper Bottom*%
%LPD*%
G54D11*
X469900Y155324D02*
X469900Y163324D01*
X465900Y159324D02*
X473900Y159324D01*
X526900Y155324D02*
X526900Y163324D01*
X522900Y159324D02*
X530900Y159324D01*
X465900Y115324D02*
X473900Y115324D01*
X469900Y111324D02*
X469900Y119324D01*
X522900Y115324D02*
X530900Y115324D01*
X526900Y111324D02*
X526900Y119324D01*
X89319Y276441D02*
X93561Y272199D01*
X89319Y272199D02*
X93561Y276441D01*
X533980Y505460D02*
G75*
D01*
G02X533980Y505460I4500J0*
G01*
X533980Y535940D02*
G75*
D01*
G02X533980Y535940I4500J0*
G01*
X59000Y386080D02*
G75*
D01*
G02X59000Y386080I4500J0*
G01*
X188540Y386080D02*
G75*
D01*
G02X188540Y386080I4500J0*
G01*
X59000Y416560D02*
G75*
D01*
G02X59000Y416560I4500J0*
G01*
X188540Y416560D02*
G75*
D01*
G02X188540Y416560I4500J0*
G01*
X229180Y416560D02*
G75*
D01*
G02X229180Y416560I4500J0*
G01*
X358720Y416560D02*
G75*
D01*
G02X358720Y416560I4500J0*
G01*
X358720Y386080D02*
G75*
D01*
G02X358720Y386080I4500J0*
G01*
X229180Y386080D02*
G75*
D01*
G02X229180Y386080I4500J0*
G01*
X404440Y386080D02*
G75*
D01*
G02X404440Y386080I4500J0*
G01*
X533980Y386080D02*
G75*
D01*
G02X533980Y386080I4500J0*
G01*
X523820Y449580D02*
G75*
D01*
G02X523820Y449580I4500J0*
G01*
X523820Y419100D02*
G75*
D01*
G02X523820Y419100I4500J0*
G01*
X310299Y272199D02*
X314541Y276441D01*
X310299Y276441D02*
X314541Y272199D01*
X414439Y442379D02*
X418681Y446621D01*
X414439Y446621D02*
X418681Y442379D01*
X61379Y96939D02*
X65621Y101181D01*
X61379Y101181D02*
X65621Y96939D01*
X203619Y47841D02*
X207861Y43599D01*
X203619Y43599D02*
X207861Y47841D01*
X493840Y521240D02*
G75*
D01*
G02X493840Y521240I4500J0*
G01*
X468840Y521240D02*
G75*
D01*
G02X468840Y521240I4500J0*
G01*
X46139Y317081D02*
X50381Y312839D01*
X46139Y312839D02*
X50381Y317081D01*
X43599Y345021D02*
X47841Y340779D01*
X43599Y340779D02*
X47841Y345021D01*
X264579Y654901D02*
X268821Y650659D01*
X264579Y650659D02*
X268821Y654901D01*
X436880Y812930D02*
X441830Y817880D01*
X436880Y822830D01*
X431930Y817880D01*
X436880Y812930D01*
X343980Y67884D02*
X351980Y67884D01*
X347980Y63884D02*
X347980Y71884D01*
X400980Y67884D02*
X408980Y67884D01*
X404980Y63884D02*
X404980Y71884D01*
X343980Y23884D02*
X351980Y23884D01*
X347980Y19884D02*
X347980Y27884D01*
X400980Y23884D02*
X408980Y23884D01*
X404980Y19884D02*
X404980Y27884D01*
X155720Y23884D02*
X163720Y23884D01*
X159720Y19884D02*
X159720Y27884D01*
X102720Y63884D02*
X102720Y71884D01*
X98720Y67884D02*
X106720Y67884D01*
X159720Y63884D02*
X159720Y71884D01*
X155720Y67884D02*
X163720Y67884D01*
X102720Y19884D02*
X102720Y27884D01*
X98720Y23884D02*
X106720Y23884D01*
X102720Y155324D02*
X102720Y163324D01*
X98720Y159324D02*
X106720Y159324D01*
X159720Y155324D02*
X159720Y163324D01*
X155720Y159324D02*
X163720Y159324D01*
X102720Y111324D02*
X102720Y119324D01*
X98720Y115324D02*
X106720Y115324D01*
X155720Y115324D02*
X163720Y115324D01*
X159720Y111324D02*
X159720Y119324D01*
X98720Y342204D02*
X106720Y342204D01*
X102720Y338204D02*
X102720Y346204D01*
X155720Y342204D02*
X163720Y342204D01*
X159720Y338204D02*
X159720Y346204D01*
X102720Y294204D02*
X102720Y302204D01*
X98720Y298204D02*
X106720Y298204D01*
X155720Y298204D02*
X163720Y298204D01*
X159720Y294204D02*
X159720Y302204D01*
X102720Y246764D02*
X102720Y254764D01*
X98720Y250764D02*
X106720Y250764D01*
X159720Y246764D02*
X159720Y254764D01*
X155720Y250764D02*
X163720Y250764D01*
X102720Y202764D02*
X102720Y210764D01*
X98720Y206764D02*
X106720Y206764D01*
X159720Y202764D02*
X159720Y210764D01*
X155720Y206764D02*
X163720Y206764D01*
X226060Y338204D02*
X226060Y346204D01*
X222060Y342204D02*
X230060Y342204D01*
X283060Y338204D02*
X283060Y346204D01*
X279060Y342204D02*
X287060Y342204D01*
X222060Y298204D02*
X230060Y298204D01*
X226060Y294204D02*
X226060Y302204D01*
X283060Y294204D02*
X283060Y302204D01*
X279060Y298204D02*
X287060Y298204D01*
X226060Y246764D02*
X226060Y254764D01*
X222060Y250764D02*
X230060Y250764D01*
X279060Y250764D02*
X287060Y250764D01*
X283060Y246764D02*
X283060Y254764D01*
X226060Y202764D02*
X226060Y210764D01*
X222060Y206764D02*
X230060Y206764D01*
X279060Y206764D02*
X287060Y206764D01*
X283060Y202764D02*
X283060Y210764D01*
X226060Y155324D02*
X226060Y163324D01*
X222060Y159324D02*
X230060Y159324D01*
X283060Y155324D02*
X283060Y163324D01*
X279060Y159324D02*
X287060Y159324D01*
X226060Y111324D02*
X226060Y119324D01*
X222060Y115324D02*
X230060Y115324D01*
X283060Y111324D02*
X283060Y119324D01*
X279060Y115324D02*
X287060Y115324D01*
X347980Y155324D02*
X347980Y163324D01*
X343980Y159324D02*
X351980Y159324D01*
X404980Y155324D02*
X404980Y163324D01*
X400980Y159324D02*
X408980Y159324D01*
X343980Y115324D02*
X351980Y115324D01*
X347980Y111324D02*
X347980Y119324D01*
X400980Y115324D02*
X408980Y115324D01*
X404980Y111324D02*
X404980Y119324D01*
X343980Y250764D02*
X351980Y250764D01*
X347980Y246764D02*
X347980Y254764D01*
X404980Y246764D02*
X404980Y254764D01*
X400980Y250764D02*
X408980Y250764D01*
X343980Y206764D02*
X351980Y206764D01*
X347980Y202764D02*
X347980Y210764D01*
X404980Y202764D02*
X404980Y210764D01*
X400980Y206764D02*
X408980Y206764D01*
X343980Y342204D02*
X351980Y342204D01*
X347980Y338204D02*
X347980Y346204D01*
X400980Y342204D02*
X408980Y342204D01*
X404980Y338204D02*
X404980Y346204D01*
X343980Y298204D02*
X351980Y298204D01*
X347980Y294204D02*
X347980Y302204D01*
X404980Y294204D02*
X404980Y302204D01*
X400980Y298204D02*
X408980Y298204D01*
X412060Y472441D02*
G75*
D01*
G02X412060Y472441I4500J0*
G01*
X412060Y521124D02*
G75*
D01*
G02X412060Y521124I4500J0*
G01*
X396659Y446621D02*
X400901Y442379D01*
X396659Y442379D02*
X400901Y446621D01*
X465900Y250764D02*
X473900Y250764D01*
X469900Y246764D02*
X469900Y254764D01*
X522900Y250764D02*
X530900Y250764D01*
X526900Y246764D02*
X526900Y254764D01*
X469900Y202764D02*
X469900Y210764D01*
X465900Y206764D02*
X473900Y206764D01*
X526900Y202764D02*
X526900Y210764D01*
X522900Y206764D02*
X530900Y206764D01*
X388400Y414869D02*
G75*
D01*
G02X388400Y414869I4500J0*
G01*
X413400Y414869D02*
G75*
D01*
G02X413400Y414869I4500J0*
G01*
X411899Y601561D02*
X416141Y597319D01*
X411899Y597319D02*
X416141Y601561D01*
X350939Y624421D02*
X355181Y620179D01*
X350939Y620179D02*
X355181Y624421D01*
X366179Y620179D02*
X370421Y624421D01*
X366179Y624421D02*
X370421Y620179D01*
X58839Y591401D02*
X63081Y587159D01*
X58839Y587159D02*
X63081Y591401D01*
X465900Y342204D02*
X473900Y342204D01*
X469900Y338204D02*
X469900Y346204D01*
X526900Y338204D02*
X526900Y346204D01*
X522900Y342204D02*
X530900Y342204D01*
X469900Y294204D02*
X469900Y302204D01*
X465900Y298204D02*
X473900Y298204D01*
X522900Y298204D02*
X530900Y298204D01*
X526900Y294204D02*
X526900Y302204D01*
X465900Y67884D02*
X473900Y67884D01*
X469900Y63884D02*
X469900Y71884D01*
X526900Y63884D02*
X526900Y71884D01*
X522900Y67884D02*
X530900Y67884D01*
X469900Y19884D02*
X469900Y27884D01*
X465900Y23884D02*
X473900Y23884D01*
X522900Y23884D02*
X530900Y23884D01*
X526900Y19884D02*
X526900Y27884D01*
X226060Y63884D02*
X226060Y71884D01*
X222060Y67884D02*
X230060Y67884D01*
X283060Y63884D02*
X283060Y71884D01*
X279060Y67884D02*
X287060Y67884D01*
X226060Y19884D02*
X226060Y27884D01*
X222060Y23884D02*
X230060Y23884D01*
X279060Y23884D02*
X287060Y23884D01*
X283060Y19884D02*
X283060Y27884D01*
X381419Y574459D02*
X385661Y578701D01*
X381419Y578701D02*
X385661Y574459D01*
X302679Y561759D02*
X306921Y566001D01*
X302679Y566001D02*
X306921Y561759D01*
X350939Y518579D02*
X355181Y522821D01*
X350939Y522821D02*
X355181Y518579D01*
X15820Y147320D02*
G75*
D01*
G02X15820Y147320I4500J0*
G01*
X15820Y121920D02*
G75*
D01*
G02X15820Y121920I4500J0*
G01*
X15820Y172720D02*
G75*
D01*
G02X15820Y172720I4500J0*
G01*
X15820Y198120D02*
G75*
D01*
G02X15820Y198120I4500J0*
G01*
X15820Y223520D02*
G75*
D01*
G02X15820Y223520I4500J0*
G01*
X462011Y419100D02*
G75*
D01*
G02X462011Y419100I4500J0*
G01*
X462011Y449580D02*
G75*
D01*
G02X462011Y449580I4500J0*
G01*
X492140Y449580D02*
G75*
D01*
G02X492140Y449580I4500J0*
G01*
X492140Y419100D02*
G75*
D01*
G02X492140Y419100I4500J0*
G01*
X175679Y520281D02*
X179921Y516039D01*
X175679Y516039D02*
X179921Y520281D01*
X490800Y731520D02*
G75*
D01*
G02X490800Y731520I4500J0*
G01*
X521280Y731520D02*
G75*
D01*
G02X521280Y731520I4500J0*
G01*
X477939Y573621D02*
X482181Y569379D01*
X477939Y569379D02*
X482181Y573621D01*
X862500Y741040D02*
G75*
D01*
G02X862500Y741040I4500J0*
G01*
X867000Y778040D02*
X867000Y786040D01*
X863000Y782040D02*
X871000Y782040D01*
X867000Y818090D02*
X871950Y823040D01*
X867000Y827990D01*
X862050Y823040D01*
X867000Y818090D01*
X864879Y861919D02*
X869121Y866161D01*
X864879Y866161D02*
X869121Y861919D01*
G54D12*
X362300Y534340D02*
X374300Y534340D01*
X374300Y546340D01*
X362300Y546340D01*
X362300Y534340D01*
X336900Y534340D02*
X348900Y534340D01*
X348900Y546340D01*
X336900Y546340D01*
X336900Y534340D01*
X311500Y534340D02*
X323500Y534340D01*
X323500Y546340D01*
X311500Y546340D01*
X311500Y534340D01*
X286100Y534340D02*
X298100Y534340D01*
X298100Y546340D01*
X286100Y546340D01*
X286100Y534340D01*
X260700Y534340D02*
X272700Y534340D01*
X272700Y546340D01*
X260700Y546340D01*
X260700Y534340D01*
X235300Y534340D02*
X247300Y534340D01*
X247300Y546340D01*
X235300Y546340D01*
X235300Y534340D01*
X209900Y534340D02*
X221900Y534340D01*
X221900Y546340D01*
X209900Y546340D01*
X209900Y534340D01*
X184500Y534340D02*
X196500Y534340D01*
X196500Y546340D01*
X184500Y546340D01*
X184500Y534340D01*
X159100Y534340D02*
X171100Y534340D01*
X171100Y546340D01*
X159100Y546340D01*
X159100Y534340D01*
X133700Y534340D02*
X145700Y534340D01*
X145700Y546340D01*
X133700Y546340D01*
X133700Y534340D01*
X108300Y534340D02*
X120300Y534340D01*
X120300Y546340D01*
X108300Y546340D01*
X108300Y534340D01*
X82900Y534340D02*
X94900Y534340D01*
X94900Y546340D01*
X82900Y546340D01*
X82900Y534340D01*
X57500Y534340D02*
X69500Y534340D01*
X69500Y546340D01*
X57500Y546340D01*
X57500Y534340D01*
X32100Y534340D02*
X44100Y534340D01*
X44100Y546340D01*
X32100Y546340D01*
X32100Y534340D01*
X362300Y449340D02*
X374300Y449340D01*
X374300Y461340D01*
X362300Y461340D01*
X362300Y449340D01*
X336900Y449340D02*
X348900Y449340D01*
X348900Y461340D01*
X336900Y461340D01*
X336900Y449340D01*
X311500Y449340D02*
X323500Y449340D01*
X323500Y461340D01*
X311500Y461340D01*
X311500Y449340D01*
X286100Y449340D02*
X298100Y449340D01*
X298100Y461340D01*
X286100Y461340D01*
X286100Y449340D01*
X260700Y449340D02*
X272700Y449340D01*
X272700Y461340D01*
X260700Y461340D01*
X260700Y449340D01*
X235300Y449340D02*
X247300Y449340D01*
X247300Y461340D01*
X235300Y461340D01*
X235300Y449340D01*
X209900Y449340D02*
X221900Y449340D01*
X221900Y461340D01*
X209900Y461340D01*
X209900Y449340D01*
X184500Y449340D02*
X196500Y449340D01*
X196500Y461340D01*
X184500Y461340D01*
X184500Y449340D01*
X159100Y449340D02*
X171100Y449340D01*
X171100Y461340D01*
X159100Y461340D01*
X159100Y449340D01*
X133700Y449340D02*
X145700Y449340D01*
X145700Y461340D01*
X133700Y461340D01*
X133700Y449340D01*
X108300Y449340D02*
X120300Y449340D01*
X120300Y461340D01*
X108300Y461340D01*
X108300Y449340D01*
X82900Y449340D02*
X94900Y449340D01*
X94900Y461340D01*
X82900Y461340D01*
X82900Y449340D01*
X57500Y449340D02*
X69500Y449340D01*
X69500Y461340D01*
X57500Y461340D01*
X57500Y449340D01*
X32100Y449340D02*
X44100Y449340D01*
X44100Y461340D01*
X32100Y461340D01*
X32100Y449340D01*
X503080Y843440D02*
X523080Y843440D01*
X513080Y860511D01*
X503080Y843440D01*
X503080Y884080D02*
X523080Y884080D01*
X513080Y901151D01*
X503080Y884080D01*
X503080Y802800D02*
X523080Y802800D01*
X513080Y819871D01*
X503080Y802800D01*
X147721Y597869D02*
X147721Y600226D01*
X148943Y601797D01*
X150166Y601797D01*
X151388Y600226D01*
X151388Y597869D01*
X147721Y599047D02*
X151388Y599047D01*
X144360Y599440D02*
G75*
D01*
G02X144360Y599440I5500J0*
G01*
X173121Y597869D02*
X173121Y600226D01*
X174343Y601797D01*
X175566Y601797D01*
X176788Y600226D01*
X176788Y597869D01*
X173121Y599047D02*
X176788Y599047D01*
X169760Y599440D02*
G75*
D01*
G02X169760Y599440I5500J0*
G01*
X198521Y597869D02*
X198521Y600226D01*
X199743Y601797D01*
X200966Y601797D01*
X202188Y600226D01*
X202188Y597869D01*
X198521Y599047D02*
X202188Y599047D01*
X195160Y599440D02*
G75*
D01*
G02X195160Y599440I5500J0*
G01*
X223921Y597869D02*
X223921Y600226D01*
X225143Y601797D01*
X226366Y601797D01*
X227588Y600226D01*
X227588Y597869D01*
X223921Y599047D02*
X227588Y599047D01*
X220560Y599440D02*
G75*
D01*
G02X220560Y599440I5500J0*
G01*
X249321Y597869D02*
X249321Y600226D01*
X250543Y601797D01*
X251766Y601797D01*
X252988Y600226D01*
X252988Y597869D01*
X249321Y599047D02*
X252988Y599047D01*
X245960Y599440D02*
G75*
D01*
G02X245960Y599440I5500J0*
G01*
X274721Y597869D02*
X274721Y600226D01*
X275943Y601797D01*
X277166Y601797D01*
X278388Y600226D01*
X278388Y597869D01*
X274721Y599047D02*
X278388Y599047D01*
X271360Y599440D02*
G75*
D01*
G02X271360Y599440I5500J0*
G01*
X300121Y597869D02*
X300121Y600226D01*
X301343Y601797D01*
X302566Y601797D01*
X303788Y600226D01*
X303788Y597869D01*
X300121Y599047D02*
X303788Y599047D01*
X296760Y599440D02*
G75*
D01*
G02X296760Y599440I5500J0*
G01*
X325521Y597869D02*
X325521Y600226D01*
X326743Y601797D01*
X327966Y601797D01*
X329188Y600226D01*
X329188Y597869D01*
X325521Y599047D02*
X329188Y599047D01*
X322160Y599440D02*
G75*
D01*
G02X322160Y599440I5500J0*
G01*
X484958Y963200D02*
X484958Y966200D01*
X486513Y968200D01*
X488069Y968200D01*
X489624Y966200D01*
X489624Y963200D01*
X484958Y964700D02*
X489624Y964700D01*
X480680Y958200D02*
X494680Y958200D01*
X494680Y972200D01*
X480680Y972200D01*
X480680Y958200D01*
X530678Y963200D02*
X530678Y966200D01*
X532233Y968200D01*
X533789Y968200D01*
X535344Y966200D01*
X535344Y963200D01*
X530678Y964700D02*
X535344Y964700D01*
X526400Y958200D02*
X540400Y958200D01*
X540400Y972200D01*
X526400Y972200D01*
X526400Y958200D01*
X857000Y567040D02*
X877000Y567040D01*
X867000Y584111D01*
X857000Y567040D01*
X971333Y585611D02*
X978000Y589897D01*
X984667Y589897D01*
X991333Y585611D01*
X991333Y583469D01*
X971333Y568469D01*
X991333Y568469D01*
X991333Y570611D01*
X1011333Y568469D02*
X1011333Y570611D01*
X1031333Y585611D02*
X1038000Y589897D01*
X1044667Y589897D01*
X1051333Y585611D01*
X1051333Y572754D01*
X1044667Y568469D01*
X1038000Y568469D01*
X1031333Y572754D01*
X1031333Y585611D01*
X1051333Y585611D02*
X1031333Y572754D01*
X1061333Y585611D02*
X1068000Y589897D01*
X1074667Y589897D01*
X1081333Y585611D01*
X1081333Y572754D01*
X1074667Y568469D01*
X1068000Y568469D01*
X1061333Y572754D01*
X1061333Y585611D01*
X1081333Y585611D02*
X1061333Y572754D01*
X1091333Y585611D02*
X1098000Y589897D01*
X1104667Y589897D01*
X1111333Y585611D01*
X1111333Y572754D01*
X1104667Y568469D01*
X1098000Y568469D01*
X1091333Y572754D01*
X1091333Y585611D01*
X1111333Y585611D02*
X1091333Y572754D01*
X1121333Y585611D02*
X1128000Y589897D01*
X1134667Y589897D01*
X1141333Y585611D01*
X1141333Y572754D01*
X1134667Y568469D01*
X1128000Y568469D01*
X1121333Y572754D01*
X1121333Y585611D01*
X1141333Y585611D02*
X1121333Y572754D01*
X1270667Y587754D02*
X1274000Y589897D01*
X1280667Y589897D01*
X1287333Y585611D01*
X1287333Y581326D01*
X1284000Y579183D01*
X1287333Y577040D01*
X1287333Y572754D01*
X1280667Y568469D01*
X1274000Y568469D01*
X1270667Y570611D01*
X1274000Y579183D02*
X1284000Y579183D01*
X1458333Y568469D02*
X1458333Y589897D01*
X1471667Y589897D01*
X1478333Y585611D01*
X1478333Y583469D01*
X1471667Y579183D01*
X1458333Y579183D01*
X1498333Y568469D02*
X1498333Y589897D01*
X1488333Y589897D02*
X1508333Y589897D01*
X1518333Y568469D02*
X1518333Y589897D01*
X1538333Y568469D02*
X1538333Y589897D01*
X1518333Y579183D02*
X1538333Y579183D01*
X1634333Y585611D02*
X1641000Y589897D01*
X1647667Y589897D01*
X1654333Y585611D01*
X1654333Y572754D01*
X1647667Y568469D01*
X1641000Y568469D01*
X1634333Y572754D01*
X1634333Y585611D01*
X1654333Y585611D02*
X1634333Y572754D01*
X1711000Y568469D02*
X1707667Y568469D01*
X1701000Y572754D01*
X1701000Y585611D01*
X1707667Y589897D01*
X1711000Y589897D01*
X1724333Y568469D02*
X1724333Y589897D01*
X1737667Y589897D01*
X1744333Y585611D01*
X1744333Y583469D01*
X1737667Y579183D01*
X1724333Y579183D01*
X1727667Y579183D02*
X1744333Y568469D01*
X1754333Y572754D02*
X1761000Y568469D01*
X1767667Y568469D01*
X1774333Y572754D01*
X1774333Y585611D01*
X1767667Y589897D01*
X1761000Y589897D01*
X1754333Y585611D01*
X1754333Y572754D01*
X1784333Y589897D02*
X1784333Y572754D01*
X1791000Y568469D01*
X1797667Y568469D01*
X1804333Y572754D01*
X1804333Y589897D01*
X1814333Y568469D02*
X1814333Y589897D01*
X1834333Y568469D01*
X1834333Y589897D01*
X1844333Y568469D02*
X1857667Y568469D01*
X1864333Y572754D01*
X1864333Y585611D01*
X1857667Y589897D01*
X1844333Y589897D01*
X1847667Y589897D02*
X1847667Y568469D01*
X1877667Y589897D02*
X1881000Y589897D01*
X1887667Y585611D01*
X1887667Y572754D01*
X1881000Y568469D01*
X1877667Y568469D01*
X864278Y616040D02*
X864278Y619040D01*
X865833Y621040D01*
X867389Y621040D01*
X868944Y619040D01*
X868944Y616040D01*
X864278Y617540D02*
X868944Y617540D01*
X860000Y611040D02*
X874000Y611040D01*
X874000Y625040D01*
X860000Y625040D01*
X860000Y611040D01*
X974667Y626611D02*
X981333Y630897D01*
X981333Y609469D01*
X971333Y609469D02*
X991333Y609469D01*
X1011333Y609469D02*
X1011333Y611611D01*
X1051333Y618040D02*
X1031333Y618040D01*
X1048000Y630897D01*
X1048000Y609469D01*
X1044667Y609469D02*
X1051333Y609469D01*
X1061333Y626611D02*
X1068000Y630897D01*
X1074667Y630897D01*
X1081333Y626611D01*
X1081333Y613754D01*
X1074667Y609469D01*
X1068000Y609469D01*
X1061333Y613754D01*
X1061333Y626611D01*
X1081333Y626611D02*
X1061333Y613754D01*
X1091333Y626611D02*
X1098000Y630897D01*
X1104667Y630897D01*
X1111333Y626611D01*
X1111333Y613754D01*
X1104667Y609469D01*
X1098000Y609469D01*
X1091333Y613754D01*
X1091333Y626611D01*
X1111333Y626611D02*
X1091333Y613754D01*
X1121333Y626611D02*
X1128000Y630897D01*
X1134667Y630897D01*
X1141333Y626611D01*
X1141333Y613754D01*
X1134667Y609469D01*
X1128000Y609469D01*
X1121333Y613754D01*
X1121333Y626611D01*
X1141333Y626611D02*
X1121333Y613754D01*
X1267333Y626611D02*
X1274000Y630897D01*
X1280667Y630897D01*
X1287333Y626611D01*
X1287333Y624469D01*
X1267333Y609469D01*
X1287333Y609469D01*
X1287333Y611611D01*
X1458333Y609469D02*
X1458333Y630897D01*
X1471667Y630897D01*
X1478333Y626611D01*
X1478333Y624469D01*
X1471667Y620183D01*
X1458333Y620183D01*
X1498333Y609469D02*
X1498333Y630897D01*
X1488333Y630897D02*
X1508333Y630897D01*
X1518333Y609469D02*
X1518333Y630897D01*
X1538333Y609469D02*
X1538333Y630897D01*
X1518333Y620183D02*
X1538333Y620183D01*
X1634333Y626611D02*
X1641000Y630897D01*
X1647667Y630897D01*
X1654333Y626611D01*
X1654333Y613754D01*
X1647667Y609469D01*
X1641000Y609469D01*
X1634333Y613754D01*
X1634333Y626611D01*
X1654333Y626611D02*
X1634333Y613754D01*
X1711000Y609469D02*
X1707667Y609469D01*
X1701000Y613754D01*
X1701000Y626611D01*
X1707667Y630897D01*
X1711000Y630897D01*
X1724333Y609469D02*
X1724333Y630897D01*
X1737667Y630897D01*
X1744333Y626611D01*
X1744333Y624469D01*
X1737667Y620183D01*
X1724333Y620183D01*
X1727667Y620183D02*
X1744333Y609469D01*
X1754333Y613754D02*
X1761000Y609469D01*
X1767667Y609469D01*
X1774333Y613754D01*
X1774333Y626611D01*
X1767667Y630897D01*
X1761000Y630897D01*
X1754333Y626611D01*
X1754333Y613754D01*
X1784333Y630897D02*
X1784333Y613754D01*
X1791000Y609469D01*
X1797667Y609469D01*
X1804333Y613754D01*
X1804333Y630897D01*
X1814333Y609469D02*
X1814333Y630897D01*
X1834333Y609469D01*
X1834333Y630897D01*
X1844333Y609469D02*
X1857667Y609469D01*
X1864333Y613754D01*
X1864333Y626611D01*
X1857667Y630897D01*
X1844333Y630897D01*
X1847667Y630897D02*
X1847667Y609469D01*
X1877667Y630897D02*
X1881000Y630897D01*
X1887667Y626611D01*
X1887667Y613754D01*
X1881000Y609469D01*
X1877667Y609469D01*
X861000Y653040D02*
X873000Y653040D01*
X873000Y665040D01*
X861000Y665040D01*
X861000Y653040D01*
X974667Y667611D02*
X981333Y671897D01*
X981333Y650469D01*
X971333Y650469D02*
X991333Y650469D01*
X1011333Y650469D02*
X1011333Y652611D01*
X1031333Y667611D02*
X1038000Y671897D01*
X1044667Y671897D01*
X1051333Y667611D01*
X1051333Y665469D01*
X1031333Y650469D01*
X1051333Y650469D01*
X1051333Y652611D01*
X1061333Y667611D02*
X1068000Y671897D01*
X1074667Y671897D01*
X1081333Y667611D01*
X1081333Y654754D01*
X1074667Y650469D01*
X1068000Y650469D01*
X1061333Y654754D01*
X1061333Y667611D01*
X1081333Y667611D02*
X1061333Y654754D01*
X1091333Y667611D02*
X1098000Y671897D01*
X1104667Y671897D01*
X1111333Y667611D01*
X1111333Y654754D01*
X1104667Y650469D01*
X1098000Y650469D01*
X1091333Y654754D01*
X1091333Y667611D01*
X1111333Y667611D02*
X1091333Y654754D01*
X1121333Y667611D02*
X1128000Y671897D01*
X1134667Y671897D01*
X1141333Y667611D01*
X1141333Y654754D01*
X1134667Y650469D01*
X1128000Y650469D01*
X1121333Y654754D01*
X1121333Y667611D01*
X1141333Y667611D02*
X1121333Y654754D01*
X1252333Y667611D02*
X1259000Y671897D01*
X1265667Y671897D01*
X1272333Y667611D01*
X1272333Y665469D01*
X1252333Y650469D01*
X1272333Y650469D01*
X1272333Y652611D01*
X1295667Y650469D02*
X1289000Y650469D01*
X1282333Y654754D01*
X1282333Y659040D01*
X1285667Y661183D01*
X1282333Y663326D01*
X1282333Y667611D01*
X1289000Y671897D01*
X1295667Y671897D01*
X1302333Y667611D01*
X1302333Y663326D01*
X1299000Y661183D01*
X1302333Y659040D01*
X1302333Y654754D01*
X1295667Y650469D01*
X1285667Y661183D02*
X1299000Y661183D01*
X1458333Y650469D02*
X1458333Y671897D01*
X1471667Y671897D01*
X1478333Y667611D01*
X1478333Y665469D01*
X1471667Y661183D01*
X1458333Y661183D01*
X1498333Y650469D02*
X1498333Y671897D01*
X1488333Y671897D02*
X1508333Y671897D01*
X1518333Y650469D02*
X1518333Y671897D01*
X1538333Y650469D02*
X1538333Y671897D01*
X1518333Y661183D02*
X1538333Y661183D01*
X1634333Y667611D02*
X1641000Y671897D01*
X1647667Y671897D01*
X1654333Y667611D01*
X1654333Y654754D01*
X1647667Y650469D01*
X1641000Y650469D01*
X1634333Y654754D01*
X1634333Y667611D01*
X1654333Y667611D02*
X1634333Y654754D01*
X1711000Y650469D02*
X1707667Y650469D01*
X1701000Y654754D01*
X1701000Y667611D01*
X1707667Y671897D01*
X1711000Y671897D01*
X1724333Y650469D02*
X1724333Y671897D01*
X1737667Y671897D01*
X1744333Y667611D01*
X1744333Y665469D01*
X1737667Y661183D01*
X1724333Y661183D01*
X1727667Y661183D02*
X1744333Y650469D01*
X1754333Y654754D02*
X1761000Y650469D01*
X1767667Y650469D01*
X1774333Y654754D01*
X1774333Y667611D01*
X1767667Y671897D01*
X1761000Y671897D01*
X1754333Y667611D01*
X1754333Y654754D01*
X1784333Y671897D02*
X1784333Y654754D01*
X1791000Y650469D01*
X1797667Y650469D01*
X1804333Y654754D01*
X1804333Y671897D01*
X1814333Y650469D02*
X1814333Y671897D01*
X1834333Y650469D01*
X1834333Y671897D01*
X1844333Y650469D02*
X1857667Y650469D01*
X1864333Y654754D01*
X1864333Y667611D01*
X1857667Y671897D01*
X1844333Y671897D01*
X1847667Y671897D02*
X1847667Y650469D01*
X1877667Y671897D02*
X1881000Y671897D01*
X1887667Y667611D01*
X1887667Y654754D01*
X1881000Y650469D01*
X1877667Y650469D01*
X864861Y698469D02*
X864861Y700826D01*
X866083Y702397D01*
X867306Y702397D01*
X868528Y700826D01*
X868528Y698469D01*
X864861Y699647D02*
X868528Y699647D01*
X861500Y700040D02*
G75*
D01*
G02X861500Y700040I5500J0*
G01*
X974667Y708611D02*
X981333Y712897D01*
X981333Y691469D01*
X971333Y691469D02*
X991333Y691469D01*
X1011333Y691469D02*
X1011333Y693611D01*
X1034667Y708611D02*
X1041333Y712897D01*
X1041333Y691469D01*
X1031333Y691469D02*
X1051333Y691469D01*
X1061333Y708611D02*
X1068000Y712897D01*
X1074667Y712897D01*
X1081333Y708611D01*
X1081333Y695754D01*
X1074667Y691469D01*
X1068000Y691469D01*
X1061333Y695754D01*
X1061333Y708611D01*
X1081333Y708611D02*
X1061333Y695754D01*
X1091333Y708611D02*
X1098000Y712897D01*
X1104667Y712897D01*
X1111333Y708611D01*
X1111333Y695754D01*
X1104667Y691469D01*
X1098000Y691469D01*
X1091333Y695754D01*
X1091333Y708611D01*
X1111333Y708611D02*
X1091333Y695754D01*
X1121333Y708611D02*
X1128000Y712897D01*
X1134667Y712897D01*
X1141333Y708611D01*
X1141333Y695754D01*
X1134667Y691469D01*
X1128000Y691469D01*
X1121333Y695754D01*
X1121333Y708611D01*
X1141333Y708611D02*
X1121333Y695754D01*
X1280667Y691469D02*
X1274000Y691469D01*
X1267333Y695754D01*
X1267333Y700040D01*
X1270667Y702183D01*
X1267333Y704326D01*
X1267333Y708611D01*
X1274000Y712897D01*
X1280667Y712897D01*
X1287333Y708611D01*
X1287333Y704326D01*
X1284000Y702183D01*
X1287333Y700040D01*
X1287333Y695754D01*
X1280667Y691469D01*
X1270667Y702183D02*
X1284000Y702183D01*
X1458333Y691469D02*
X1458333Y712897D01*
X1471667Y712897D01*
X1478333Y708611D01*
X1478333Y706469D01*
X1471667Y702183D01*
X1458333Y702183D01*
X1498333Y691469D02*
X1498333Y712897D01*
X1488333Y712897D02*
X1508333Y712897D01*
X1518333Y691469D02*
X1518333Y712897D01*
X1538333Y691469D02*
X1538333Y712897D01*
X1518333Y702183D02*
X1538333Y702183D01*
X1634333Y708611D02*
X1641000Y712897D01*
X1647667Y712897D01*
X1654333Y708611D01*
X1654333Y695754D01*
X1647667Y691469D01*
X1641000Y691469D01*
X1634333Y695754D01*
X1634333Y708611D01*
X1654333Y708611D02*
X1634333Y695754D01*
X1711000Y691469D02*
X1707667Y691469D01*
X1701000Y695754D01*
X1701000Y708611D01*
X1707667Y712897D01*
X1711000Y712897D01*
X1724333Y691469D02*
X1724333Y712897D01*
X1737667Y712897D01*
X1744333Y708611D01*
X1744333Y706469D01*
X1737667Y702183D01*
X1724333Y702183D01*
X1727667Y702183D02*
X1744333Y691469D01*
X1754333Y695754D02*
X1761000Y691469D01*
X1767667Y691469D01*
X1774333Y695754D01*
X1774333Y708611D01*
X1767667Y712897D01*
X1761000Y712897D01*
X1754333Y708611D01*
X1754333Y695754D01*
X1784333Y712897D02*
X1784333Y695754D01*
X1791000Y691469D01*
X1797667Y691469D01*
X1804333Y695754D01*
X1804333Y712897D01*
X1814333Y691469D02*
X1814333Y712897D01*
X1834333Y691469D01*
X1834333Y712897D01*
X1844333Y691469D02*
X1857667Y691469D01*
X1864333Y695754D01*
X1864333Y708611D01*
X1857667Y712897D01*
X1844333Y712897D01*
X1847667Y712897D02*
X1847667Y691469D01*
X1877667Y712897D02*
X1881000Y712897D01*
X1887667Y708611D01*
X1887667Y695754D01*
X1881000Y691469D01*
X1877667Y691469D01*
X971333Y749611D02*
X978000Y753897D01*
X984667Y753897D01*
X991333Y749611D01*
X991333Y736754D01*
X984667Y732469D01*
X978000Y732469D01*
X971333Y736754D01*
X971333Y749611D01*
X991333Y749611D02*
X971333Y736754D01*
X1011333Y732469D02*
X1011333Y734611D01*
X1031333Y736754D02*
X1038000Y732469D01*
X1044667Y732469D01*
X1051333Y736754D01*
X1051333Y745326D01*
X1051333Y749611D01*
X1044667Y753897D01*
X1038000Y753897D01*
X1031333Y749611D01*
X1031333Y745326D01*
X1038000Y741040D01*
X1044667Y741040D01*
X1051333Y745326D01*
X1061333Y749611D02*
X1068000Y753897D01*
X1074667Y753897D01*
X1081333Y749611D01*
X1081333Y736754D01*
X1074667Y732469D01*
X1068000Y732469D01*
X1061333Y736754D01*
X1061333Y749611D01*
X1081333Y749611D02*
X1061333Y736754D01*
X1091333Y749611D02*
X1098000Y753897D01*
X1104667Y753897D01*
X1111333Y749611D01*
X1111333Y736754D01*
X1104667Y732469D01*
X1098000Y732469D01*
X1091333Y736754D01*
X1091333Y749611D01*
X1111333Y749611D02*
X1091333Y736754D01*
X1121333Y749611D02*
X1128000Y753897D01*
X1134667Y753897D01*
X1141333Y749611D01*
X1141333Y736754D01*
X1134667Y732469D01*
X1128000Y732469D01*
X1121333Y736754D01*
X1121333Y749611D01*
X1141333Y749611D02*
X1121333Y736754D01*
X1255667Y751754D02*
X1259000Y753897D01*
X1265667Y753897D01*
X1272333Y749611D01*
X1272333Y745326D01*
X1269000Y743183D01*
X1272333Y741040D01*
X1272333Y736754D01*
X1265667Y732469D01*
X1259000Y732469D01*
X1255667Y734611D01*
X1259000Y743183D02*
X1269000Y743183D01*
X1285667Y749611D02*
X1292333Y753897D01*
X1292333Y732469D01*
X1282333Y732469D02*
X1302333Y732469D01*
X1458333Y732469D02*
X1458333Y753897D01*
X1471667Y753897D01*
X1478333Y749611D01*
X1478333Y747469D01*
X1471667Y743183D01*
X1458333Y743183D01*
X1498333Y732469D02*
X1498333Y753897D01*
X1488333Y753897D02*
X1508333Y753897D01*
X1518333Y732469D02*
X1518333Y753897D01*
X1538333Y732469D02*
X1538333Y753897D01*
X1518333Y743183D02*
X1538333Y743183D01*
X1634333Y749611D02*
X1641000Y753897D01*
X1647667Y753897D01*
X1654333Y749611D01*
X1654333Y736754D01*
X1647667Y732469D01*
X1641000Y732469D01*
X1634333Y736754D01*
X1634333Y749611D01*
X1654333Y749611D02*
X1634333Y736754D01*
X1711000Y732469D02*
X1707667Y732469D01*
X1701000Y736754D01*
X1701000Y749611D01*
X1707667Y753897D01*
X1711000Y753897D01*
X1724333Y732469D02*
X1724333Y753897D01*
X1737667Y753897D01*
X1744333Y749611D01*
X1744333Y747469D01*
X1737667Y743183D01*
X1724333Y743183D01*
X1727667Y743183D02*
X1744333Y732469D01*
X1754333Y736754D02*
X1761000Y732469D01*
X1767667Y732469D01*
X1774333Y736754D01*
X1774333Y749611D01*
X1767667Y753897D01*
X1761000Y753897D01*
X1754333Y749611D01*
X1754333Y736754D01*
X1784333Y753897D02*
X1784333Y736754D01*
X1791000Y732469D01*
X1797667Y732469D01*
X1804333Y736754D01*
X1804333Y753897D01*
X1814333Y732469D02*
X1814333Y753897D01*
X1834333Y732469D01*
X1834333Y753897D01*
X1844333Y732469D02*
X1857667Y732469D01*
X1864333Y736754D01*
X1864333Y749611D01*
X1857667Y753897D01*
X1844333Y753897D01*
X1847667Y753897D02*
X1847667Y732469D01*
X1877667Y753897D02*
X1881000Y753897D01*
X1887667Y749611D01*
X1887667Y736754D01*
X1881000Y732469D01*
X1877667Y732469D01*
X971333Y790611D02*
X978000Y794897D01*
X984667Y794897D01*
X991333Y790611D01*
X991333Y777754D01*
X984667Y773469D01*
X978000Y773469D01*
X971333Y777754D01*
X971333Y790611D01*
X991333Y790611D02*
X971333Y777754D01*
X1011333Y773469D02*
X1011333Y775611D01*
X1044667Y773469D02*
X1038000Y773469D01*
X1031333Y777754D01*
X1031333Y782040D01*
X1034667Y784183D01*
X1031333Y786326D01*
X1031333Y790611D01*
X1038000Y794897D01*
X1044667Y794897D01*
X1051333Y790611D01*
X1051333Y786326D01*
X1048000Y784183D01*
X1051333Y782040D01*
X1051333Y777754D01*
X1044667Y773469D01*
X1034667Y784183D02*
X1048000Y784183D01*
X1061333Y790611D02*
X1068000Y794897D01*
X1074667Y794897D01*
X1081333Y790611D01*
X1081333Y777754D01*
X1074667Y773469D01*
X1068000Y773469D01*
X1061333Y777754D01*
X1061333Y790611D01*
X1081333Y790611D02*
X1061333Y777754D01*
X1091333Y790611D02*
X1098000Y794897D01*
X1104667Y794897D01*
X1111333Y790611D01*
X1111333Y777754D01*
X1104667Y773469D01*
X1098000Y773469D01*
X1091333Y777754D01*
X1091333Y790611D01*
X1111333Y790611D02*
X1091333Y777754D01*
X1121333Y790611D02*
X1128000Y794897D01*
X1134667Y794897D01*
X1141333Y790611D01*
X1141333Y777754D01*
X1134667Y773469D01*
X1128000Y773469D01*
X1121333Y777754D01*
X1121333Y790611D01*
X1141333Y790611D02*
X1121333Y777754D01*
X1269000Y794897D02*
X1259000Y794897D01*
X1252333Y790611D01*
X1252333Y782040D01*
X1252333Y777754D01*
X1259000Y773469D01*
X1265667Y773469D01*
X1272333Y777754D01*
X1272333Y782040D01*
X1265667Y786326D01*
X1259000Y786326D01*
X1252333Y782040D01*
X1302333Y782040D02*
X1282333Y782040D01*
X1299000Y794897D01*
X1299000Y773469D01*
X1295667Y773469D02*
X1302333Y773469D01*
X1458333Y773469D02*
X1458333Y794897D01*
X1471667Y794897D01*
X1478333Y790611D01*
X1478333Y788469D01*
X1471667Y784183D01*
X1458333Y784183D01*
X1498333Y773469D02*
X1498333Y794897D01*
X1488333Y794897D02*
X1508333Y794897D01*
X1518333Y773469D02*
X1518333Y794897D01*
X1538333Y773469D02*
X1538333Y794897D01*
X1518333Y784183D02*
X1538333Y784183D01*
X1634333Y790611D02*
X1641000Y794897D01*
X1647667Y794897D01*
X1654333Y790611D01*
X1654333Y777754D01*
X1647667Y773469D01*
X1641000Y773469D01*
X1634333Y777754D01*
X1634333Y790611D01*
X1654333Y790611D02*
X1634333Y777754D01*
X1711000Y773469D02*
X1707667Y773469D01*
X1701000Y777754D01*
X1701000Y790611D01*
X1707667Y794897D01*
X1711000Y794897D01*
X1724333Y773469D02*
X1724333Y794897D01*
X1737667Y794897D01*
X1744333Y790611D01*
X1744333Y788469D01*
X1737667Y784183D01*
X1724333Y784183D01*
X1727667Y784183D02*
X1744333Y773469D01*
X1754333Y777754D02*
X1761000Y773469D01*
X1767667Y773469D01*
X1774333Y777754D01*
X1774333Y790611D01*
X1767667Y794897D01*
X1761000Y794897D01*
X1754333Y790611D01*
X1754333Y777754D01*
X1784333Y794897D02*
X1784333Y777754D01*
X1791000Y773469D01*
X1797667Y773469D01*
X1804333Y777754D01*
X1804333Y794897D01*
X1814333Y773469D02*
X1814333Y794897D01*
X1834333Y773469D01*
X1834333Y794897D01*
X1844333Y773469D02*
X1857667Y773469D01*
X1864333Y777754D01*
X1864333Y790611D01*
X1857667Y794897D01*
X1844333Y794897D01*
X1847667Y794897D02*
X1847667Y773469D01*
X1877667Y794897D02*
X1881000Y794897D01*
X1887667Y790611D01*
X1887667Y777754D01*
X1881000Y773469D01*
X1877667Y773469D01*
X971333Y831611D02*
X978000Y835897D01*
X984667Y835897D01*
X991333Y831611D01*
X991333Y818754D01*
X984667Y814469D01*
X978000Y814469D01*
X971333Y818754D01*
X971333Y831611D01*
X991333Y831611D02*
X971333Y818754D01*
X1011333Y814469D02*
X1011333Y816611D01*
X1041333Y814469D02*
X1041333Y825183D01*
X1051333Y831611D01*
X1051333Y835897D01*
X1031333Y835897D01*
X1031333Y831611D01*
X1061333Y831611D02*
X1068000Y835897D01*
X1074667Y835897D01*
X1081333Y831611D01*
X1081333Y818754D01*
X1074667Y814469D01*
X1068000Y814469D01*
X1061333Y818754D01*
X1061333Y831611D01*
X1081333Y831611D02*
X1061333Y818754D01*
X1091333Y831611D02*
X1098000Y835897D01*
X1104667Y835897D01*
X1111333Y831611D01*
X1111333Y818754D01*
X1104667Y814469D01*
X1098000Y814469D01*
X1091333Y818754D01*
X1091333Y831611D01*
X1111333Y831611D02*
X1091333Y818754D01*
X1121333Y831611D02*
X1128000Y835897D01*
X1134667Y835897D01*
X1141333Y831611D01*
X1141333Y818754D01*
X1134667Y814469D01*
X1128000Y814469D01*
X1121333Y818754D01*
X1121333Y831611D01*
X1141333Y831611D02*
X1121333Y818754D01*
X1270667Y831611D02*
X1277333Y835897D01*
X1277333Y814469D01*
X1267333Y814469D02*
X1287333Y814469D01*
X1458333Y814469D02*
X1458333Y835897D01*
X1471667Y835897D01*
X1478333Y831611D01*
X1478333Y829469D01*
X1471667Y825183D01*
X1458333Y825183D01*
X1498333Y814469D02*
X1498333Y835897D01*
X1488333Y835897D02*
X1508333Y835897D01*
X1518333Y814469D02*
X1518333Y835897D01*
X1538333Y814469D02*
X1538333Y835897D01*
X1518333Y825183D02*
X1538333Y825183D01*
X1634333Y831611D02*
X1641000Y835897D01*
X1647667Y835897D01*
X1654333Y831611D01*
X1654333Y818754D01*
X1647667Y814469D01*
X1641000Y814469D01*
X1634333Y818754D01*
X1634333Y831611D01*
X1654333Y831611D02*
X1634333Y818754D01*
X1711000Y814469D02*
X1707667Y814469D01*
X1701000Y818754D01*
X1701000Y831611D01*
X1707667Y835897D01*
X1711000Y835897D01*
X1724333Y814469D02*
X1724333Y835897D01*
X1737667Y835897D01*
X1744333Y831611D01*
X1744333Y829469D01*
X1737667Y825183D01*
X1724333Y825183D01*
X1727667Y825183D02*
X1744333Y814469D01*
X1754333Y818754D02*
X1761000Y814469D01*
X1767667Y814469D01*
X1774333Y818754D01*
X1774333Y831611D01*
X1767667Y835897D01*
X1761000Y835897D01*
X1754333Y831611D01*
X1754333Y818754D01*
X1784333Y835897D02*
X1784333Y818754D01*
X1791000Y814469D01*
X1797667Y814469D01*
X1804333Y818754D01*
X1804333Y835897D01*
X1814333Y814469D02*
X1814333Y835897D01*
X1834333Y814469D01*
X1834333Y835897D01*
X1844333Y814469D02*
X1857667Y814469D01*
X1864333Y818754D01*
X1864333Y831611D01*
X1857667Y835897D01*
X1844333Y835897D01*
X1847667Y835897D02*
X1847667Y814469D01*
X1877667Y835897D02*
X1881000Y835897D01*
X1887667Y831611D01*
X1887667Y818754D01*
X1881000Y814469D01*
X1877667Y814469D01*
X971333Y872611D02*
X978000Y876897D01*
X984667Y876897D01*
X991333Y872611D01*
X991333Y859754D01*
X984667Y855469D01*
X978000Y855469D01*
X971333Y859754D01*
X971333Y872611D01*
X991333Y872611D02*
X971333Y859754D01*
X1011333Y855469D02*
X1011333Y857611D01*
X1048000Y876897D02*
X1038000Y876897D01*
X1031333Y872611D01*
X1031333Y864040D01*
X1031333Y859754D01*
X1038000Y855469D01*
X1044667Y855469D01*
X1051333Y859754D01*
X1051333Y864040D01*
X1044667Y868326D01*
X1038000Y868326D01*
X1031333Y864040D01*
X1061333Y872611D02*
X1068000Y876897D01*
X1074667Y876897D01*
X1081333Y872611D01*
X1081333Y859754D01*
X1074667Y855469D01*
X1068000Y855469D01*
X1061333Y859754D01*
X1061333Y872611D01*
X1081333Y872611D02*
X1061333Y859754D01*
X1091333Y872611D02*
X1098000Y876897D01*
X1104667Y876897D01*
X1111333Y872611D01*
X1111333Y859754D01*
X1104667Y855469D01*
X1098000Y855469D01*
X1091333Y859754D01*
X1091333Y872611D01*
X1111333Y872611D02*
X1091333Y859754D01*
X1121333Y872611D02*
X1128000Y876897D01*
X1134667Y876897D01*
X1141333Y872611D01*
X1141333Y859754D01*
X1134667Y855469D01*
X1128000Y855469D01*
X1121333Y859754D01*
X1121333Y872611D01*
X1141333Y872611D02*
X1121333Y859754D01*
X1255667Y872611D02*
X1262333Y876897D01*
X1262333Y855469D01*
X1252333Y855469D02*
X1272333Y855469D01*
X1295667Y855469D02*
X1289000Y855469D01*
X1282333Y859754D01*
X1282333Y864040D01*
X1285667Y866183D01*
X1282333Y868326D01*
X1282333Y872611D01*
X1289000Y876897D01*
X1295667Y876897D01*
X1302333Y872611D01*
X1302333Y868326D01*
X1299000Y866183D01*
X1302333Y864040D01*
X1302333Y859754D01*
X1295667Y855469D01*
X1285667Y866183D02*
X1299000Y866183D01*
X1458333Y855469D02*
X1458333Y876897D01*
X1471667Y876897D01*
X1478333Y872611D01*
X1478333Y870469D01*
X1471667Y866183D01*
X1458333Y866183D01*
X1498333Y855469D02*
X1498333Y876897D01*
X1488333Y876897D02*
X1508333Y876897D01*
X1518333Y855469D02*
X1518333Y876897D01*
X1538333Y855469D02*
X1538333Y876897D01*
X1518333Y866183D02*
X1538333Y866183D01*
X1634333Y872611D02*
X1641000Y876897D01*
X1647667Y876897D01*
X1654333Y872611D01*
X1654333Y859754D01*
X1647667Y855469D01*
X1641000Y855469D01*
X1634333Y859754D01*
X1634333Y872611D01*
X1654333Y872611D02*
X1634333Y859754D01*
X1711000Y855469D02*
X1707667Y855469D01*
X1701000Y859754D01*
X1701000Y872611D01*
X1707667Y876897D01*
X1711000Y876897D01*
X1724333Y855469D02*
X1724333Y876897D01*
X1737667Y876897D01*
X1744333Y872611D01*
X1744333Y870469D01*
X1737667Y866183D01*
X1724333Y866183D01*
X1727667Y866183D02*
X1744333Y855469D01*
X1754333Y859754D02*
X1761000Y855469D01*
X1767667Y855469D01*
X1774333Y859754D01*
X1774333Y872611D01*
X1767667Y876897D01*
X1761000Y876897D01*
X1754333Y872611D01*
X1754333Y859754D01*
X1784333Y876897D02*
X1784333Y859754D01*
X1791000Y855469D01*
X1797667Y855469D01*
X1804333Y859754D01*
X1804333Y876897D01*
X1814333Y855469D02*
X1814333Y876897D01*
X1834333Y855469D01*
X1834333Y876897D01*
X1844333Y855469D02*
X1857667Y855469D01*
X1864333Y859754D01*
X1864333Y872611D01*
X1857667Y876897D01*
X1844333Y876897D01*
X1847667Y876897D02*
X1847667Y855469D01*
X1877667Y876897D02*
X1881000Y876897D01*
X1887667Y872611D01*
X1887667Y859754D01*
X1881000Y855469D01*
X1877667Y855469D01*
G04 ColorRGB 00FFFF for the following layer *
%LNBoard Outline*%
%LPD*%
G54D10*
G54D13*
X-2540Y973849D02*
X-2540Y26151D01*
G75*
D01*
G03X23611Y0I26151J0*
G01*
X537809Y0D01*
G75*
D01*
G03X563960Y26151I0J26151*
G01*
X563960Y973849D01*
G74*
D01*
G03X537809Y1000000I26151J0*
G01*
X23611Y1000000D01*
G75*
D01*
G03X-2540Y973849I0J-26151*
G01*
G54D14*
X-5080Y-2540D02*
X-5080Y97968D01*
X-5080Y-2540D02*
X52078Y-2540D01*
X566500Y-2540D02*
X509342Y-2540D01*
X566500Y-2540D02*
X566500Y97968D01*
X566500Y1002540D02*
X566500Y902032D01*
X566500Y1002540D02*
X509342Y1002540D01*
X-5080Y1002540D02*
X52078Y1002540D01*
X-5080Y1002540D02*
X-5080Y902032D01*
X-55080Y-2540D02*
X-155080Y-2540D01*
X-105080Y-52540D02*
X-105080Y47460D01*
X-142580Y-2540D02*
G75*
D01*
G02X-142580Y-2540I37500J0*
G01*
X616500Y-2540D02*
X716500Y-2540D01*
X666500Y-52540D02*
X666500Y47460D01*
X629000Y-2540D02*
G75*
D01*
G02X629000Y-2540I37500J0*
G01*
X654000Y-2540D02*
G75*
D01*
G02X654000Y-2540I12500J0*
G01*
X-55080Y1002540D02*
X-155080Y1002540D01*
X-105080Y952540D02*
X-105080Y1052540D01*
X-142580Y1002540D02*
G75*
D01*
G02X-142580Y1002540I37500J0*
G01*
X-130080Y1002540D02*
G75*
D01*
G02X-130080Y1002540I25000J0*
G01*
X-117580Y1002540D02*
G75*
D01*
G02X-117580Y1002540I12500J0*
G01*
G04 ColorRGB 66FFCC for the following layer *
%LNLegend Description*%
%LPD*%
G54D12*
X771500Y556540D02*
X1936500Y556540D01*
X1936500Y1007540D01*
X771500Y1007540D01*
X771500Y556540D01*
X962500Y925540D02*
X962500Y556540D01*
X1153500Y925540D02*
X1153500Y556540D01*
X1404500Y925540D02*
X1404500Y556540D01*
X1595500Y925540D02*
X1595500Y556540D01*
X1936500Y925540D02*
X1936500Y556540D01*
X771500Y597540D02*
X1936500Y597540D01*
X771500Y638540D02*
X1936500Y638540D01*
X771500Y679540D02*
X1936500Y679540D01*
X771500Y720540D02*
X1936500Y720540D01*
X771500Y761540D02*
X1936500Y761540D01*
X771500Y802540D02*
X1936500Y802540D01*
X771500Y843540D02*
X1936500Y843540D01*
X780333Y900754D02*
X787000Y896469D01*
X793667Y896469D01*
X800333Y900754D01*
X780333Y913611D01*
X787000Y917897D01*
X793667Y917897D01*
X800333Y913611D01*
X810333Y890040D02*
X813667Y890040D01*
X830333Y911469D01*
X810333Y911469D02*
X820333Y898611D01*
X840333Y896469D02*
X840333Y909326D01*
X840333Y911469D01*
X840333Y909326D02*
X843667Y911469D01*
X847000Y911469D01*
X850333Y909326D01*
X853667Y911469D01*
X857000Y911469D01*
X860333Y909326D01*
X860333Y896469D01*
X850333Y909326D02*
X850333Y896469D01*
X870333Y900754D02*
X877000Y896469D01*
X883667Y896469D01*
X890333Y900754D01*
X890333Y905040D01*
X883667Y909326D01*
X877000Y909326D01*
X870333Y905040D01*
X870333Y917897D02*
X870333Y896469D01*
X900333Y900754D02*
X907000Y896469D01*
X913667Y896469D01*
X920333Y900754D01*
X920333Y907183D01*
X913667Y911469D01*
X907000Y911469D01*
X900333Y907183D01*
X900333Y900754D01*
X933667Y917897D02*
X933667Y900754D01*
X940333Y896469D01*
X771500Y884540D02*
X1936500Y884540D01*
X1001333Y900754D02*
X1008000Y896469D01*
X1014667Y896469D01*
X1021333Y900754D01*
X1001333Y913611D01*
X1008000Y917897D01*
X1014667Y917897D01*
X1021333Y913611D01*
X1041333Y896469D02*
X1041333Y909326D01*
X1041333Y913611D02*
X1041333Y915754D01*
X1061333Y911469D02*
X1081333Y911469D01*
X1061333Y896469D01*
X1081333Y896469D01*
X1111333Y900754D02*
X1104667Y896469D01*
X1098000Y896469D01*
X1091333Y900754D01*
X1091333Y907183D01*
X1098000Y911469D01*
X1104667Y911469D01*
X1111333Y907183D01*
X1108000Y905040D01*
X1091333Y905040D01*
X1162333Y900754D02*
X1169000Y896469D01*
X1175667Y896469D01*
X1182333Y900754D01*
X1182333Y913611D01*
X1175667Y917897D01*
X1169000Y917897D01*
X1162333Y913611D01*
X1162333Y900754D01*
X1175667Y900754D02*
X1182333Y896469D01*
X1192333Y911469D02*
X1192333Y900754D01*
X1199000Y896469D01*
X1205667Y896469D01*
X1212333Y900754D01*
X1212333Y911469D01*
X1212333Y900754D02*
X1212333Y896469D01*
X1225667Y911469D02*
X1235667Y911469D01*
X1239000Y909326D01*
X1239000Y898611D01*
X1235667Y896469D01*
X1225667Y896469D01*
X1222333Y898611D01*
X1222333Y902897D01*
X1225667Y905040D01*
X1239000Y905040D01*
X1239000Y898611D02*
X1242333Y896469D01*
X1252333Y896469D02*
X1252333Y909326D01*
X1252333Y911469D01*
X1252333Y909326D02*
X1255667Y911469D01*
X1262333Y911469D01*
X1265667Y909326D01*
X1265667Y896469D01*
X1299000Y898611D02*
X1295667Y896469D01*
X1292333Y898611D01*
X1292333Y917897D01*
X1285667Y911469D02*
X1299000Y911469D01*
X1322333Y896469D02*
X1322333Y909326D01*
X1322333Y913611D02*
X1322333Y915754D01*
X1359000Y898611D02*
X1355667Y896469D01*
X1352333Y898611D01*
X1352333Y917897D01*
X1345667Y911469D02*
X1359000Y911469D01*
X1372333Y890040D02*
X1375667Y890040D01*
X1392333Y911469D01*
X1372333Y911469D02*
X1382333Y898611D01*
X1413333Y896469D02*
X1413333Y917897D01*
X1426667Y917897D01*
X1433333Y913611D01*
X1433333Y911469D01*
X1426667Y907183D01*
X1413333Y907183D01*
X1446667Y917897D02*
X1446667Y900754D01*
X1453333Y896469D01*
X1476667Y911469D02*
X1486667Y911469D01*
X1490000Y909326D01*
X1490000Y898611D01*
X1486667Y896469D01*
X1476667Y896469D01*
X1473333Y898611D01*
X1473333Y902897D01*
X1476667Y905040D01*
X1490000Y905040D01*
X1490000Y898611D02*
X1493333Y896469D01*
X1520000Y898611D02*
X1516667Y896469D01*
X1513333Y898611D01*
X1513333Y917897D01*
X1506667Y911469D02*
X1520000Y911469D01*
X1553333Y900754D02*
X1546667Y896469D01*
X1540000Y896469D01*
X1533333Y900754D01*
X1533333Y907183D01*
X1540000Y911469D01*
X1546667Y911469D01*
X1553333Y907183D01*
X1550000Y905040D01*
X1533333Y905040D01*
X1583333Y900754D02*
X1576667Y896469D01*
X1570000Y896469D01*
X1563333Y900754D01*
X1563333Y905040D01*
X1570000Y909326D01*
X1576667Y909326D01*
X1583333Y905040D01*
X1583333Y917897D02*
X1583333Y896469D01*
X1604333Y900754D02*
X1611000Y896469D01*
X1617667Y896469D01*
X1624333Y900754D01*
X1604333Y913611D01*
X1611000Y917897D01*
X1617667Y917897D01*
X1624333Y913611D01*
X1637667Y917897D02*
X1637667Y900754D01*
X1644333Y896469D01*
X1664333Y900754D02*
X1671000Y896469D01*
X1677667Y896469D01*
X1684333Y900754D01*
X1684333Y907183D01*
X1677667Y911469D01*
X1671000Y911469D01*
X1664333Y907183D01*
X1664333Y900754D01*
X1711000Y898611D02*
X1707667Y896469D01*
X1704333Y898611D01*
X1704333Y917897D01*
X1697667Y911469D02*
X1711000Y911469D01*
X1754333Y917897D02*
X1754333Y896469D01*
X1774333Y896469D01*
X1804333Y900754D02*
X1797667Y896469D01*
X1791000Y896469D01*
X1784333Y900754D01*
X1784333Y907183D01*
X1791000Y911469D01*
X1797667Y911469D01*
X1804333Y907183D01*
X1801000Y905040D01*
X1784333Y905040D01*
X1814333Y896469D02*
X1814333Y909326D01*
X1814333Y911469D01*
X1814333Y909326D02*
X1817667Y911469D01*
X1824333Y911469D01*
X1827667Y909326D01*
X1827667Y896469D01*
X1844333Y894326D02*
X1851000Y890040D01*
X1857667Y890040D01*
X1864333Y894326D01*
X1864333Y900754D01*
X1864333Y907183D01*
X1857667Y911469D01*
X1851000Y911469D01*
X1844333Y907183D01*
X1844333Y900754D01*
X1851000Y896469D01*
X1857667Y896469D01*
X1864333Y900754D01*
X1891000Y898611D02*
X1887667Y896469D01*
X1884333Y898611D01*
X1884333Y917897D01*
X1877667Y911469D02*
X1891000Y911469D01*
X1904333Y907183D02*
X1911000Y911469D01*
X1917667Y911469D01*
X1924333Y907183D01*
X1924333Y896469D01*
X1904333Y917897D02*
X1904333Y896469D01*
X771500Y925540D02*
X1936500Y925540D01*
X1072333Y937469D02*
X1072333Y950326D01*
X1079000Y958897D01*
X1085667Y958897D01*
X1092333Y950326D01*
X1092333Y937469D01*
X1072333Y943897D02*
X1092333Y943897D01*
X1105667Y958897D02*
X1105667Y941754D01*
X1112333Y937469D01*
X1135667Y958897D02*
X1135667Y941754D01*
X1142333Y937469D01*
X1192333Y952469D02*
X1192333Y941754D01*
X1199000Y937469D01*
X1205667Y937469D01*
X1212333Y941754D01*
X1212333Y952469D01*
X1212333Y941754D02*
X1212333Y937469D01*
X1222333Y937469D02*
X1222333Y950326D01*
X1222333Y952469D01*
X1222333Y950326D02*
X1225667Y952469D01*
X1232333Y952469D01*
X1235667Y950326D01*
X1235667Y937469D01*
X1262333Y937469D02*
X1262333Y950326D01*
X1262333Y954611D02*
X1262333Y956754D01*
X1299000Y939611D02*
X1295667Y937469D01*
X1292333Y939611D01*
X1292333Y958897D01*
X1285667Y952469D02*
X1299000Y952469D01*
X1312333Y941754D02*
X1319000Y937469D01*
X1325667Y937469D01*
X1332333Y941754D01*
X1312333Y948183D01*
X1319000Y952469D01*
X1325667Y952469D01*
X1332333Y948183D01*
X1375667Y952469D02*
X1385667Y952469D01*
X1389000Y950326D01*
X1389000Y939611D01*
X1385667Y937469D01*
X1375667Y937469D01*
X1372333Y939611D01*
X1372333Y943897D01*
X1375667Y946040D01*
X1389000Y946040D01*
X1389000Y939611D02*
X1392333Y937469D01*
X1402333Y946040D02*
X1412333Y952469D01*
X1415667Y952469D01*
X1422333Y948183D01*
X1402333Y937469D02*
X1402333Y952469D01*
X1452333Y941754D02*
X1445667Y937469D01*
X1439000Y937469D01*
X1432333Y941754D01*
X1432333Y948183D01*
X1439000Y952469D01*
X1445667Y952469D01*
X1452333Y948183D01*
X1449000Y946040D01*
X1432333Y946040D01*
X1502333Y937469D02*
X1502333Y950326D01*
X1502333Y954611D02*
X1502333Y956754D01*
X1522333Y937469D02*
X1522333Y950326D01*
X1522333Y952469D01*
X1522333Y950326D02*
X1525667Y952469D01*
X1532333Y952469D01*
X1535667Y950326D01*
X1535667Y937469D01*
X1582333Y937469D02*
X1582333Y950326D01*
X1582333Y952469D01*
X1582333Y950326D02*
X1585667Y952469D01*
X1589000Y952469D01*
X1592333Y950326D01*
X1595667Y952469D01*
X1599000Y952469D01*
X1602333Y950326D01*
X1602333Y937469D01*
X1592333Y950326D02*
X1592333Y937469D01*
X1612333Y937469D02*
X1612333Y950326D01*
X1612333Y952469D01*
X1612333Y950326D02*
X1615667Y952469D01*
X1619000Y952469D01*
X1622333Y950326D01*
X1625667Y952469D01*
X1629000Y952469D01*
X1632333Y950326D01*
X1632333Y937469D01*
X1622333Y950326D02*
X1622333Y937469D01*
X771500Y966540D02*
X1936500Y966540D01*
X1177333Y978469D02*
X1190667Y978469D01*
X1197333Y982754D01*
X1197333Y995611D01*
X1190667Y999897D01*
X1177333Y999897D01*
X1180667Y999897D02*
X1180667Y978469D01*
X1207333Y987040D02*
X1217333Y993469D01*
X1220667Y993469D01*
X1227333Y989183D01*
X1207333Y978469D02*
X1207333Y993469D01*
X1247333Y978469D02*
X1247333Y991326D01*
X1247333Y995611D02*
X1247333Y997754D01*
X1270667Y999897D02*
X1270667Y982754D01*
X1277333Y978469D01*
X1300667Y999897D02*
X1300667Y982754D01*
X1307333Y978469D01*
X1357333Y999897D02*
X1357333Y978469D01*
X1377333Y978469D01*
X1407333Y982754D02*
X1400667Y978469D01*
X1394000Y978469D01*
X1387333Y982754D01*
X1387333Y989183D01*
X1394000Y993469D01*
X1400667Y993469D01*
X1407333Y989183D01*
X1404000Y987040D01*
X1387333Y987040D01*
X1417333Y976326D02*
X1424000Y972040D01*
X1430667Y972040D01*
X1437333Y976326D01*
X1437333Y982754D01*
X1437333Y989183D01*
X1430667Y993469D01*
X1424000Y993469D01*
X1417333Y989183D01*
X1417333Y982754D01*
X1424000Y978469D01*
X1430667Y978469D01*
X1437333Y982754D01*
X1467333Y982754D02*
X1460667Y978469D01*
X1454000Y978469D01*
X1447333Y982754D01*
X1447333Y989183D01*
X1454000Y993469D01*
X1460667Y993469D01*
X1467333Y989183D01*
X1464000Y987040D01*
X1447333Y987040D01*
X1477333Y978469D02*
X1477333Y991326D01*
X1477333Y993469D01*
X1477333Y991326D02*
X1480667Y993469D01*
X1487333Y993469D01*
X1490667Y991326D01*
X1490667Y978469D01*
X1527333Y982754D02*
X1520667Y978469D01*
X1514000Y978469D01*
X1507333Y982754D01*
X1507333Y987040D01*
X1514000Y991326D01*
X1520667Y991326D01*
X1527333Y987040D01*
X1527333Y999897D02*
X1527333Y978469D01*

M02*
