G04 Generated by Ultiboard 14.0 *
%FSLAX34Y34*%
%MOMM*%

%ADD11C,0.8000*%
%ADD12C,0.6000*%
%ADD13C,0.9000*%
%ADD14C,1.2000*%
%ADD15C,0.7000*%
%ADD16C,2.0000*%
%ADD17C,1.1000*%
%ADD18C,1.4000*%


G04 ColorRGB 000000 for the following layer *
%LNDrill-Copper Top-Copper Bottom*%
%LPD*%
G54D11*
X469900Y159324D03*
X526900Y159324D03*
X469900Y115324D03*
X526900Y115324D03*
X347980Y67884D03*
X404980Y67884D03*
X347980Y23884D03*
X404980Y23884D03*
X159720Y23884D03*
X102720Y67884D03*
X159720Y67884D03*
X102720Y23884D03*
X102720Y159324D03*
X159720Y159324D03*
X102720Y115324D03*
X159720Y115324D03*
X102720Y342204D03*
X159720Y342204D03*
X102720Y298204D03*
X159720Y298204D03*
X102720Y250764D03*
X159720Y250764D03*
X102720Y206764D03*
X159720Y206764D03*
X226060Y342204D03*
X283060Y342204D03*
X226060Y298204D03*
X283060Y298204D03*
X226060Y250764D03*
X283060Y250764D03*
X226060Y206764D03*
X283060Y206764D03*
X226060Y159324D03*
X283060Y159324D03*
X226060Y115324D03*
X283060Y115324D03*
X347980Y159324D03*
X404980Y159324D03*
X347980Y115324D03*
X404980Y115324D03*
X347980Y250764D03*
X404980Y250764D03*
X347980Y206764D03*
X404980Y206764D03*
X347980Y342204D03*
X404980Y342204D03*
X347980Y298204D03*
X404980Y298204D03*
X469900Y250764D03*
X526900Y250764D03*
X469900Y206764D03*
X526900Y206764D03*
X469900Y342204D03*
X526900Y342204D03*
X469900Y298204D03*
X526900Y298204D03*
X469900Y67884D03*
X526900Y67884D03*
X469900Y23884D03*
X526900Y23884D03*
X226060Y67884D03*
X283060Y67884D03*
X226060Y23884D03*
X283060Y23884D03*
G54D12*
X91440Y274320D03*
X312420Y274320D03*
X416560Y444500D03*
X63500Y99060D03*
X205740Y45720D03*
X48260Y314960D03*
X45720Y342900D03*
X266700Y652780D03*
X398780Y444500D03*
X414020Y599440D03*
X353060Y622300D03*
X368300Y622300D03*
X60960Y589280D03*
X383540Y576580D03*
X304800Y563880D03*
X353060Y520700D03*
X177800Y518160D03*
X480060Y571500D03*
G54D13*
X538480Y505460D03*
X538480Y535940D03*
X63500Y386080D03*
X193040Y386080D03*
X63500Y416560D03*
X193040Y416560D03*
X233680Y416560D03*
X363220Y416560D03*
X363220Y386080D03*
X233680Y386080D03*
X408940Y386080D03*
X538480Y386080D03*
X528320Y449580D03*
X528320Y419100D03*
X498340Y521240D03*
X473340Y521240D03*
X416560Y472441D03*
X416560Y521124D03*
X392900Y414869D03*
X417900Y414869D03*
X20320Y147320D03*
X20320Y121920D03*
X20320Y172720D03*
X20320Y198120D03*
X20320Y223520D03*
X466511Y419100D03*
X466511Y449580D03*
X496640Y449580D03*
X496640Y419100D03*
X495300Y731520D03*
X525780Y731520D03*
G54D14*
X368300Y540340D03*
X342900Y540340D03*
X317500Y540340D03*
X292100Y540340D03*
X266700Y540340D03*
X241300Y540340D03*
X215900Y540340D03*
X190500Y540340D03*
X165100Y540340D03*
X139700Y540340D03*
X114300Y540340D03*
X88900Y540340D03*
X63500Y540340D03*
X38100Y540340D03*
X368300Y455340D03*
X342900Y455340D03*
X317500Y455340D03*
X292100Y455340D03*
X266700Y455340D03*
X241300Y455340D03*
X215900Y455340D03*
X190500Y455340D03*
X165100Y455340D03*
X139700Y455340D03*
X114300Y455340D03*
X88900Y455340D03*
X63500Y455340D03*
X38100Y455340D03*
G54D15*
X436880Y817880D03*
G54D16*
X513080Y853440D03*
X513080Y894080D03*
X513080Y812800D03*
G54D17*
X149860Y599440D03*
X175260Y599440D03*
X200660Y599440D03*
X226060Y599440D03*
X251460Y599440D03*
X276860Y599440D03*
X302260Y599440D03*
X327660Y599440D03*
G54D18*
X487680Y965200D03*
X533400Y965200D03*

M02*
