M48
METRIC,TZ
VER,1
FMAT,2
DETECT,ON
ATC,ON
T1C0.8000
T2C0.6000
T3C0.9000
T4C1.2000
T5C0.7000
T6C2.0000
T7C1.1000
T8C1.4000
%
T1
X469900Y159324
X526900
X469900Y115324
X526900
X347980Y67884
X404980
X347980Y23884
X404980
X159720
X102720Y67884
X159720
X102720Y23884
Y159324
X159720
X102720Y115324
X159720
X102720Y342204
X159720
X102720Y298204
X159720
X102720Y250764
X159720
X102720Y206764
X159720
X226060Y342204
X283060
X226060Y298204
X283060
X226060Y250764
X283060
X226060Y206764
X283060
X226060Y159324
X283060
X226060Y115324
X283060
X347980Y159324
X404980
X347980Y115324
X404980
X347980Y250764
X404980
X347980Y206764
X404980
X347980Y342204
X404980
X347980Y298204
X404980
X469900Y250764
X526900
X469900Y206764
X526900
X469900Y342204
X526900
X469900Y298204
X526900
X469900Y67884
X526900
X469900Y23884
X526900
X226060Y67884
X283060
X226060Y23884
X283060
T2
X91440Y274320
X312420
X416560Y444500
X63500Y99060
X205740Y45720
X48260Y314960
X45720Y342900
X266700Y652780
X398780Y444500
X414020Y599440
X353060Y622300
X368300
X60960Y589280
X383540Y576580
X304800Y563880
X353060Y520700
X177800Y518160
X480060Y571500
T3
X538480Y505460
Y535940
X63500Y386080
X193040
X63500Y416560
X193040
X233680
X363220
Y386080
X233680
X408940
X538480
X528320Y449580
Y419100
X498340Y521240
X473340
X416560Y472441
Y521124
X392900Y414869
X417900
X20320Y147320
Y121920
Y172720
Y198120
Y223520
X466511Y419100
Y449580
X496640
Y419100
X495300Y731520
X525780
T4
X368300Y540340
X342900
X317500
X292100
X266700
X241300
X215900
X190500
X165100
X139700
X114300
X88900
X63500
X38100
X368300Y455340
X342900
X317500
X292100
X266700
X241300
X215900
X190500
X165100
X139700
X114300
X88900
X63500
X38100
T5
X436880Y817880
T6
X513080Y853440
Y894080
Y812800
T7
X149860Y599440
X175260
X200660
X226060
X251460
X276860
X302260
X327660
T8
X487680Y965200
X533400
M30
