G04 Generated by Ultiboard 14.0 *
%FSLAX34Y34*%
%MOMM*%

%ADD10C,0.0001*%
%ADD11C,0.6500*%
%ADD12C,0.3111*%
%ADD13C,0.2032*%
%ADD14C,0.1778*%
%ADD15C,0.2000*%
%ADD16C,0.2500*%
%ADD17C,0.1270*%


G04 ColorRGB FF14FF for the following layer *
%LNSilkscreen Bottom*%
%LPD*%
G54D10*
G54D11*
X103764Y771559D02*
X103764Y753779D01*
X88524Y771559D02*
X88524Y753779D01*
X119004Y771559D02*
X119004Y753779D01*
X134244Y771559D02*
X134244Y753779D01*
X76200Y784860D02*
X58420Y784860D01*
X77320Y843280D02*
X147320Y843280D01*
X147320Y773280D01*
X77320Y773280D01*
X77320Y843280D01*
X165992Y785059D02*
X148212Y785059D01*
X76200Y800100D02*
X58420Y800100D01*
X165992Y800299D02*
X148212Y800299D01*
X76200Y830580D02*
X58420Y830580D01*
X76200Y815340D02*
X58420Y815340D01*
X165992Y815539D02*
X148212Y815539D01*
X165992Y830779D02*
X148212Y830779D01*
X104708Y861962D02*
X104708Y844182D01*
X89468Y861962D02*
X89468Y844182D01*
X119948Y861962D02*
X119948Y844182D01*
X135188Y861962D02*
X135188Y844182D01*
G54D12*
X135169Y798420D02*
X135169Y818420D01*
X129196Y808420D01*
X123222Y818420D01*
X123222Y798420D01*
X105302Y802420D02*
X109284Y798420D01*
X113267Y798420D01*
X117249Y802420D01*
X117249Y814420D01*
X113267Y818420D01*
X109284Y818420D01*
X105302Y814420D01*
X99329Y818420D02*
X99329Y802420D01*
X95347Y798420D01*
X91364Y798420D01*
X87382Y802420D01*
X87382Y818420D01*
G54D13*
X359823Y683720D02*
X359823Y693720D01*
X355841Y693720D01*
X353850Y691720D01*
X353850Y690720D01*
X355841Y688720D01*
X359823Y688720D01*
X358828Y688720D02*
X353850Y683720D01*
X347877Y683720D02*
X347877Y688720D01*
X344891Y691720D01*
X344891Y693720D01*
X350864Y693720D01*
X350864Y691720D01*
X376767Y678180D02*
X334433Y678180D01*
X334433Y652780D02*
X376767Y652780D01*
X334433Y678180D02*
X334433Y652780D01*
X376767Y652780D02*
X376767Y678180D01*
X418243Y683720D02*
X418243Y693720D01*
X414261Y693720D01*
X412270Y691720D01*
X412270Y690720D01*
X414261Y688720D01*
X418243Y688720D01*
X417248Y688720D02*
X412270Y683720D01*
X404306Y693720D02*
X407293Y693720D01*
X409284Y691720D01*
X409284Y687720D01*
X409284Y685720D01*
X407293Y683720D01*
X405302Y683720D01*
X403311Y685720D01*
X403311Y687720D01*
X405302Y689720D01*
X407293Y689720D01*
X409284Y687720D01*
X432647Y678180D02*
X390313Y678180D01*
X390313Y652780D02*
X432647Y652780D01*
X390313Y678180D02*
X390313Y652780D01*
X432647Y652780D02*
X432647Y678180D01*
X199870Y759540D02*
X197879Y761540D01*
X195888Y761540D01*
X193897Y759540D01*
X193897Y753540D01*
X195888Y751540D01*
X197879Y751540D01*
X199870Y753540D01*
X206838Y761540D02*
X204847Y761540D01*
X202856Y759540D01*
X202856Y757540D01*
X203852Y756540D01*
X202856Y755540D01*
X202856Y753540D01*
X204847Y751540D01*
X206838Y751540D01*
X208829Y753540D01*
X208829Y755540D01*
X207834Y756540D01*
X208829Y757540D01*
X208829Y759540D01*
X206838Y761540D01*
X203852Y756540D02*
X207834Y756540D01*
X182033Y718820D02*
X224367Y718820D01*
X224367Y744220D02*
X182033Y744220D01*
X224367Y718820D02*
X224367Y744220D01*
X182033Y744220D02*
X182033Y718820D01*
X203852Y699660D02*
X205843Y697660D01*
X207834Y697660D01*
X209825Y699660D01*
X209825Y705660D01*
X207834Y707660D01*
X205843Y707660D01*
X203852Y705660D01*
X197879Y697660D02*
X197879Y702660D01*
X194892Y705660D01*
X194892Y707660D01*
X200865Y707660D01*
X200865Y705660D01*
X182033Y668020D02*
X224367Y668020D01*
X224367Y693420D02*
X182033Y693420D01*
X224367Y668020D02*
X224367Y693420D01*
X182033Y693420D02*
X182033Y668020D01*
X240305Y514780D02*
X240305Y524780D01*
X236323Y524780D01*
X234332Y522780D01*
X234332Y521780D01*
X236323Y519780D01*
X240305Y519780D01*
X239309Y519780D02*
X234332Y514780D01*
X227363Y514780D02*
X229354Y514780D01*
X231345Y516780D01*
X231345Y518780D01*
X230350Y519780D01*
X231345Y520780D01*
X231345Y522780D01*
X229354Y524780D01*
X227363Y524780D01*
X225372Y522780D01*
X225372Y520780D01*
X226368Y519780D01*
X225372Y518780D01*
X225372Y516780D01*
X227363Y514780D01*
X230350Y519780D02*
X226368Y519780D01*
X220980Y513927D02*
X220980Y471593D01*
X246380Y471593D02*
X246380Y513927D01*
X220980Y471593D02*
X246380Y471593D01*
X246380Y513927D02*
X220980Y513927D01*
X270204Y515499D02*
X270204Y525499D01*
X266222Y525499D01*
X264231Y523499D01*
X264231Y522499D01*
X266222Y520499D01*
X270204Y520499D01*
X269208Y520499D02*
X264231Y515499D01*
X261245Y517499D02*
X259254Y515499D01*
X257263Y515499D01*
X255272Y517499D01*
X255272Y521499D01*
X255272Y523499D01*
X257263Y525499D01*
X259254Y525499D01*
X261245Y523499D01*
X261245Y521499D01*
X259254Y519499D01*
X257263Y519499D01*
X255272Y521499D01*
X251460Y513927D02*
X251460Y471593D01*
X276860Y471593D02*
X276860Y513927D01*
X251460Y471593D02*
X276860Y471593D01*
X276860Y513927D02*
X251460Y513927D01*
X306345Y517320D02*
X306345Y527320D01*
X302363Y527320D01*
X300372Y525320D01*
X300372Y524320D01*
X302363Y522320D01*
X306345Y522320D01*
X305349Y522320D02*
X300372Y517320D01*
X296390Y525320D02*
X294399Y527320D01*
X294399Y517320D01*
X297385Y517320D02*
X291412Y517320D01*
X288426Y525320D02*
X286435Y527320D01*
X284444Y527320D01*
X282453Y525320D01*
X282453Y519320D01*
X284444Y517320D01*
X286435Y517320D01*
X288426Y519320D01*
X288426Y525320D01*
X282453Y525320D02*
X288426Y519320D01*
X281940Y513927D02*
X281940Y471593D01*
X307340Y471593D02*
X307340Y513927D01*
X281940Y471593D02*
X307340Y471593D01*
X307340Y513927D02*
X281940Y513927D01*
X336825Y517320D02*
X336825Y527320D01*
X332843Y527320D01*
X330852Y525320D01*
X330852Y524320D01*
X332843Y522320D01*
X336825Y522320D01*
X335829Y522320D02*
X330852Y517320D01*
X326870Y525320D02*
X324879Y527320D01*
X324879Y517320D01*
X327865Y517320D02*
X321892Y517320D01*
X317910Y525320D02*
X315919Y527320D01*
X315919Y517320D01*
X318906Y517320D02*
X312933Y517320D01*
X312420Y513927D02*
X312420Y471593D01*
X337820Y471593D02*
X337820Y513927D01*
X312420Y471593D02*
X337820Y471593D01*
X337820Y513927D02*
X312420Y513927D01*
X323544Y754100D02*
X323544Y746100D01*
X321553Y744100D01*
X319562Y744100D01*
X317571Y746100D01*
X317571Y754100D01*
X308611Y748100D02*
X314584Y748100D01*
X309607Y754100D01*
X309607Y744100D01*
X310602Y744100D02*
X308611Y744100D01*
G54D14*
X335973Y964123D02*
X335973Y974409D01*
X332560Y981266D01*
X329147Y981266D01*
X325733Y974409D01*
X325733Y964123D01*
X335973Y969266D02*
X325733Y969266D01*
X320613Y976123D02*
X320613Y967551D01*
X317200Y964123D01*
X313787Y964123D01*
X310373Y967551D01*
X310373Y976123D01*
X310373Y967551D02*
X310373Y964123D01*
X296720Y965837D02*
X298427Y964123D01*
X300133Y965837D01*
X300133Y981266D01*
X303547Y976123D02*
X296720Y976123D01*
X289893Y972694D02*
X286480Y976123D01*
X283067Y976123D01*
X279653Y972694D01*
X279653Y964123D01*
X289893Y981266D02*
X289893Y964123D01*
X274533Y967551D02*
X271120Y964123D01*
X267707Y964123D01*
X264293Y967551D01*
X264293Y972694D01*
X267707Y976123D01*
X271120Y976123D01*
X274533Y972694D01*
X274533Y967551D01*
X259173Y970980D02*
X254053Y976123D01*
X252347Y976123D01*
X248933Y972694D01*
X259173Y964123D02*
X259173Y976123D01*
X238693Y979551D02*
X238693Y976123D01*
X238693Y965837D02*
X238693Y969266D01*
X213093Y964123D02*
X213093Y981266D01*
X207973Y972694D01*
X202853Y981266D01*
X202853Y964123D01*
X196027Y976123D02*
X190907Y976123D01*
X189200Y974409D01*
X189200Y965837D01*
X190907Y964123D01*
X196027Y964123D01*
X197733Y965837D01*
X197733Y969266D01*
X196027Y970980D01*
X189200Y970980D01*
X189200Y965837D02*
X187493Y964123D01*
X182373Y970980D02*
X177253Y976123D01*
X175547Y976123D01*
X172133Y972694D01*
X182373Y964123D02*
X182373Y976123D01*
X158480Y965837D02*
X160187Y964123D01*
X161893Y965837D01*
X161893Y981266D01*
X165307Y976123D02*
X158480Y976123D01*
X146533Y964123D02*
X146533Y974409D01*
X146533Y977837D02*
X146533Y979551D01*
X136293Y964123D02*
X136293Y974409D01*
X136293Y976123D01*
X136293Y974409D02*
X134587Y976123D01*
X131173Y976123D01*
X129467Y974409D01*
X129467Y964123D01*
X105573Y964123D02*
X105573Y981266D01*
X105573Y972694D02*
X103867Y972694D01*
X95333Y981266D01*
X103867Y972694D02*
X95333Y964123D01*
X90213Y970980D02*
X85093Y976123D01*
X83387Y976123D01*
X79973Y972694D01*
X90213Y964123D02*
X90213Y976123D01*
X66320Y965837D02*
X68027Y964123D01*
X71440Y964123D01*
X74853Y967551D01*
X74853Y972694D01*
X71440Y976123D01*
X68027Y976123D01*
X66320Y974409D01*
X59493Y964123D02*
X59493Y974409D01*
X59493Y976123D01*
X59493Y974409D02*
X57787Y976123D01*
X56080Y976123D01*
X54373Y974409D01*
X52667Y976123D01*
X50960Y976123D01*
X49253Y974409D01*
X49253Y964123D01*
X54373Y974409D02*
X54373Y964123D01*
X42427Y976123D02*
X37307Y976123D01*
X35600Y974409D01*
X35600Y965837D01*
X37307Y964123D01*
X42427Y964123D01*
X44133Y965837D01*
X44133Y969266D01*
X42427Y970980D01*
X35600Y970980D01*
X35600Y965837D02*
X33893Y964123D01*
X173840Y957266D02*
X178960Y957266D01*
X182373Y953837D01*
X182373Y946980D01*
X182373Y943551D01*
X178960Y940123D01*
X175547Y940123D01*
X172133Y943551D01*
X172133Y946980D01*
X175547Y950409D01*
X178960Y950409D01*
X182373Y946980D01*
X161893Y940123D02*
X161893Y941837D01*
X136293Y943551D02*
X132880Y940123D01*
X129467Y940123D01*
X126053Y943551D01*
X126053Y950409D01*
X126053Y953837D01*
X129467Y957266D01*
X132880Y957266D01*
X136293Y953837D01*
X136293Y950409D01*
X132880Y946980D01*
X129467Y946980D01*
X126053Y950409D01*
X115813Y940123D02*
X115813Y941837D01*
X90213Y953837D02*
X86800Y957266D01*
X83387Y957266D01*
X79973Y953837D01*
X79973Y952123D01*
X90213Y940123D01*
X79973Y940123D01*
X79973Y941837D01*
X74853Y953837D02*
X71440Y957266D01*
X68027Y957266D01*
X64613Y953837D01*
X64613Y943551D01*
X68027Y940123D01*
X71440Y940123D01*
X74853Y943551D01*
X74853Y953837D01*
X64613Y953837D02*
X74853Y943551D01*
X57787Y953837D02*
X54373Y957266D01*
X54373Y940123D01*
X59493Y940123D02*
X49253Y940123D01*
X44133Y943551D02*
X40720Y940123D01*
X37307Y940123D01*
X33893Y943551D01*
X33893Y950409D01*
X33893Y953837D01*
X37307Y957266D01*
X40720Y957266D01*
X44133Y953837D01*
X44133Y950409D01*
X40720Y946980D01*
X37307Y946980D01*
X33893Y950409D01*
X167013Y916123D02*
X167013Y926409D01*
X163600Y933266D01*
X160187Y933266D01*
X156773Y926409D01*
X156773Y916123D01*
X167013Y921266D02*
X156773Y921266D01*
X143120Y917837D02*
X144827Y916123D01*
X146533Y917837D01*
X146533Y933266D01*
X149947Y928123D02*
X143120Y928123D01*
X136293Y916123D02*
X136293Y926409D01*
X136293Y928123D01*
X136293Y926409D02*
X134587Y928123D01*
X132880Y928123D01*
X131173Y926409D01*
X129467Y928123D01*
X127760Y928123D01*
X126053Y926409D01*
X126053Y916123D01*
X131173Y926409D02*
X131173Y916123D01*
X110693Y919551D02*
X114107Y916123D01*
X117520Y916123D01*
X120933Y919551D01*
X120933Y924694D01*
X117520Y928123D01*
X114107Y928123D01*
X110693Y924694D01*
X112400Y922980D01*
X120933Y922980D01*
X105573Y914409D02*
X102160Y910980D01*
X98747Y910980D01*
X95333Y914409D01*
X95333Y919551D01*
X95333Y924694D01*
X98747Y928123D01*
X102160Y928123D01*
X105573Y924694D01*
X105573Y919551D01*
X102160Y916123D01*
X98747Y916123D01*
X95333Y919551D01*
X88507Y928123D02*
X83387Y928123D01*
X81680Y926409D01*
X81680Y917837D01*
X83387Y916123D01*
X88507Y916123D01*
X90213Y917837D01*
X90213Y921266D01*
X88507Y922980D01*
X81680Y922980D01*
X81680Y917837D02*
X79973Y916123D01*
X73147Y931551D02*
X71440Y933266D01*
X68027Y933266D01*
X64613Y929837D01*
X64613Y926409D01*
X66320Y924694D01*
X64613Y922980D01*
X64613Y919551D01*
X68027Y916123D01*
X71440Y916123D01*
X73147Y917837D01*
X71440Y924694D02*
X66320Y924694D01*
X59493Y929837D02*
X56080Y933266D01*
X52667Y933266D01*
X49253Y929837D01*
X49253Y928123D01*
X59493Y916123D01*
X49253Y916123D01*
X49253Y917837D01*
X37307Y916123D02*
X40720Y916123D01*
X44133Y919551D01*
X44133Y922980D01*
X42427Y924694D01*
X44133Y926409D01*
X44133Y929837D01*
X40720Y933266D01*
X37307Y933266D01*
X33893Y929837D01*
X33893Y926409D01*
X35600Y924694D01*
X33893Y922980D01*
X33893Y919551D01*
X37307Y916123D01*
X42427Y924694D02*
X35600Y924694D01*
X167013Y892123D02*
X167013Y909266D01*
X156773Y892123D01*
X156773Y909266D01*
X151653Y895551D02*
X148240Y892123D01*
X144827Y892123D01*
X141413Y895551D01*
X141413Y900694D01*
X144827Y904123D01*
X148240Y904123D01*
X151653Y900694D01*
X151653Y895551D01*
X136293Y898980D02*
X132880Y898980D01*
X127760Y904123D01*
X132880Y898980D02*
X127760Y892123D01*
X136293Y892123D02*
X136293Y909266D01*
X115813Y892123D02*
X115813Y902409D01*
X115813Y905837D02*
X115813Y907551D01*
X103867Y904123D02*
X98747Y904123D01*
X97040Y902409D01*
X97040Y893837D01*
X98747Y892123D01*
X103867Y892123D01*
X105573Y893837D01*
X105573Y897266D01*
X103867Y898980D01*
X97040Y898980D01*
X97040Y893837D02*
X95333Y892123D01*
X79973Y909266D02*
X90213Y909266D01*
X90213Y902409D01*
X83387Y902409D01*
X79973Y898980D01*
X79973Y895551D01*
X83387Y892123D01*
X90213Y892123D01*
X73147Y905837D02*
X69733Y909266D01*
X69733Y892123D01*
X74853Y892123D02*
X64613Y892123D01*
X57787Y905837D02*
X54373Y909266D01*
X54373Y892123D01*
X59493Y892123D02*
X49253Y892123D01*
X44133Y905837D02*
X40720Y909266D01*
X37307Y909266D01*
X33893Y905837D01*
X33893Y895551D01*
X37307Y892123D01*
X40720Y892123D01*
X44133Y895551D01*
X44133Y905837D01*
X33893Y905837D02*
X44133Y895551D01*
X319127Y807594D02*
X315713Y807594D01*
X315713Y802451D01*
X319127Y799023D01*
X322540Y799023D01*
X325953Y802451D01*
X325953Y812737D01*
X322540Y816166D01*
X315713Y816166D01*
X300353Y802451D02*
X303767Y799023D01*
X307180Y799023D01*
X310593Y802451D01*
X310593Y812737D01*
X307180Y816166D01*
X303767Y816166D01*
X300353Y812737D01*
X293527Y811023D02*
X288407Y811023D01*
X286700Y809309D01*
X286700Y800737D01*
X288407Y799023D01*
X293527Y799023D01*
X295233Y800737D01*
X295233Y804166D01*
X293527Y805880D01*
X286700Y805880D01*
X286700Y800737D02*
X284993Y799023D01*
X278167Y816166D02*
X278167Y802451D01*
X274753Y799023D01*
X255980Y800737D02*
X257687Y799023D01*
X261100Y799023D01*
X264513Y802451D01*
X264513Y807594D01*
X261100Y811023D01*
X257687Y811023D01*
X255980Y809309D01*
X232087Y814451D02*
X230380Y816166D01*
X226967Y816166D01*
X223553Y812737D01*
X223553Y809309D01*
X225260Y807594D01*
X223553Y805880D01*
X223553Y802451D01*
X226967Y799023D01*
X230380Y799023D01*
X232087Y800737D01*
X230380Y807594D02*
X225260Y807594D01*
X213313Y799023D02*
X213313Y800737D01*
X203073Y812737D02*
X199660Y816166D01*
X196247Y816166D01*
X192833Y812737D01*
X192833Y802451D01*
X196247Y799023D01*
X199660Y799023D01*
X203073Y802451D01*
X203073Y812737D01*
X192833Y812737D02*
X203073Y802451D01*
G54D15*
X246900Y706360D02*
X246900Y736360D01*
X311900Y736360D02*
X311900Y706360D01*
X246900Y706360D01*
X311900Y708360D02*
X309900Y706360D01*
X311900Y710360D02*
X307900Y706360D01*
X311900Y712360D02*
X305900Y706360D01*
X311900Y714360D02*
X303900Y706360D01*
X311900Y716360D02*
X301900Y706360D01*
X246900Y736360D02*
X311900Y736360D01*
G54D16*
X311150Y684360D02*
G75*
D01*
G02X311150Y684360I1250J0*
G01*
G54D17*
X-5080Y-2540D02*
X-5080Y97968D01*
X-5080Y-2540D02*
X52078Y-2540D01*
X566500Y-2540D02*
X509342Y-2540D01*
X566500Y-2540D02*
X566500Y97968D01*
X566500Y1002540D02*
X566500Y902032D01*
X566500Y1002540D02*
X509342Y1002540D01*
X-5080Y1002540D02*
X52078Y1002540D01*
X-5080Y1002540D02*
X-5080Y902032D01*
X-55080Y-2540D02*
X-155080Y-2540D01*
X-105080Y-52540D02*
X-105080Y47460D01*
X-142580Y-2540D02*
G75*
D01*
G02X-142580Y-2540I37500J0*
G01*
X616500Y-2540D02*
X716500Y-2540D01*
X666500Y-52540D02*
X666500Y47460D01*
X629000Y-2540D02*
G75*
D01*
G02X629000Y-2540I37500J0*
G01*
X654000Y-2540D02*
G75*
D01*
G02X654000Y-2540I12500J0*
G01*
X-55080Y1002540D02*
X-155080Y1002540D01*
X-105080Y952540D02*
X-105080Y1052540D01*
X-142580Y1002540D02*
G75*
D01*
G02X-142580Y1002540I37500J0*
G01*
X-130080Y1002540D02*
G75*
D01*
G02X-130080Y1002540I25000J0*
G01*
X-117580Y1002540D02*
G75*
D01*
G02X-117580Y1002540I12500J0*
G01*

M02*
