G04 Generated by Ultiboard 14.0 *
%FSLAX34Y34*%
%MOMM*%

%ADD10C,0.0001*%
%ADD11C,1.0000*%
%ADD12C,0.6500*%
%ADD13C,0.8000*%
%ADD14C,1.5000*%
%ADD15C,1.2000*%
%ADD16C,1.2500*%
%ADD17C,0.1270*%
%ADD18C,2.4620*%
%ADD19C,1.2000*%
%ADD20C,1.8000*%
%ADD21R,1.8000X1.8000*%
%ADD22C,1.7000*%
%ADD23R,1.7000X1.7000*%
%ADD24C,2.1000*%
%ADD25C,1.0000*%
%ADD26C,1.3000*%
%ADD27C,3.6000*%
%ADD28C,2.0000*%
%ADD29R,5.5500X5.9500*%
%ADD30R,1.2500X2.8500*%
%ADD31C,2.2000*%
%ADD32C,3.1000*%
%ADD33R,2.0000X2.0000*%
%ADD34C,1.4000*%


G04 ColorRGB 00FF00 for the following layer *
%LNCopper Top*%
%LPD*%
G54D10*
G54D11*
X523240Y551180D02*
X488580Y551180D01*
X473340Y535940D01*
X102720Y250764D02*
X102720Y245260D01*
X254000Y278704D02*
X226060Y250764D01*
X347980Y342204D02*
X351216Y342204D01*
X375920Y317500D01*
X375920Y278704D01*
X347980Y250764D01*
X351216Y250764D01*
X375920Y226060D01*
X375920Y187264D01*
X347980Y159324D01*
X347980Y154940D01*
X375920Y127000D01*
X375920Y95824D01*
X347980Y67884D01*
X497840Y131384D02*
X469900Y159324D01*
X497840Y187264D01*
X469900Y342204D02*
X470596Y342204D01*
X497840Y187264D02*
X497840Y222824D01*
X469900Y250764D01*
X497840Y314960D02*
X497840Y278704D01*
X469900Y250764D01*
X470596Y342204D02*
X497840Y314960D01*
X469900Y68580D02*
X497840Y96520D01*
X469900Y67884D02*
X469900Y68580D01*
X497840Y96520D02*
X497840Y131384D01*
X226756Y342204D02*
X254000Y314960D01*
X254000Y278704D01*
X226060Y342204D02*
X226756Y342204D01*
X226756Y250764D02*
X226060Y250764D01*
X254000Y223520D02*
X254000Y187264D01*
X226756Y250764D02*
X254000Y223520D01*
X254000Y187264D02*
X226060Y159324D01*
X254000Y131384D02*
X254000Y95824D01*
X254000Y131384D02*
X226060Y159324D01*
X254000Y95824D02*
X226060Y67884D01*
X132080Y129964D02*
X132080Y97244D01*
X102720Y159324D02*
X132080Y129964D01*
X132080Y97244D02*
X102720Y67884D01*
X132080Y280124D02*
X102720Y250764D01*
X132080Y215900D02*
X132080Y188684D01*
X102720Y159324D01*
X102720Y245260D02*
X132080Y215900D01*
X102720Y341780D02*
X132080Y312420D01*
X132080Y280124D01*
X241300Y452800D02*
X241300Y455340D01*
X213360Y424860D02*
X241300Y452800D01*
X193040Y386080D02*
X203200Y386080D01*
X213360Y396240D02*
X213360Y424860D01*
X203200Y386080D02*
X213360Y396240D01*
X175260Y576580D02*
X175260Y599440D01*
X114300Y540340D02*
X114300Y556260D01*
X88900Y563880D02*
X88900Y540340D01*
X114300Y556260D02*
X124460Y566420D01*
X165100Y566420D01*
X149860Y599440D02*
X124460Y599440D01*
X88900Y563880D01*
X165100Y566420D02*
X175260Y576580D01*
X276860Y599440D02*
X276860Y642620D01*
X266700Y652780D01*
X457200Y551180D02*
X414020Y551180D01*
X327660Y599440D02*
X414020Y599440D01*
X414020Y551180D02*
X388620Y576580D01*
X383540Y576580D02*
X388620Y576580D01*
X523240Y551180D02*
X538480Y535940D01*
X93980Y416560D02*
X63500Y447040D01*
X63500Y455340D01*
X93980Y381000D02*
X93980Y416560D01*
X71120Y337820D02*
X71120Y358140D01*
X93980Y381000D01*
X48260Y314960D02*
X71120Y337820D01*
G54D12*
X312420Y274320D02*
X317500Y279400D01*
X317500Y355600D01*
X411479Y472441D02*
X416560Y472441D01*
X205740Y45720D02*
X424180Y45720D01*
X100180Y295664D02*
X102720Y298204D01*
X41760Y295664D02*
X100180Y295664D01*
X63500Y540340D02*
X63500Y533400D01*
X190500Y468040D02*
X190500Y455340D01*
X162560Y482600D02*
X139700Y505460D01*
X139700Y540340D01*
X187960Y482600D02*
X162560Y482600D01*
X441960Y63500D02*
X424180Y45720D01*
X327660Y365760D02*
X381000Y365760D01*
X317500Y355600D02*
X327660Y365760D01*
X390360Y412329D02*
X390360Y375120D01*
X381000Y365760D02*
X390360Y375120D01*
X390360Y412329D02*
X392900Y414869D01*
X194310Y64770D02*
X194310Y349250D01*
X215900Y450260D02*
X215900Y455340D01*
X202520Y436880D02*
X215900Y450260D01*
X180340Y436880D02*
X202520Y436880D01*
X170180Y373380D02*
X170180Y426720D01*
X180340Y436880D01*
X194310Y349250D02*
X170180Y373380D01*
X353060Y622300D02*
X304800Y670560D01*
X248920Y670560D01*
X213360Y635000D01*
X106680Y635000D01*
X60960Y589280D01*
X368300Y622300D02*
X368300Y629920D01*
X312420Y685800D01*
X243840Y685800D01*
X208280Y650240D01*
X63500Y533400D02*
X21590Y491490D01*
X45720Y342900D02*
X45720Y421640D01*
X38100Y429260D01*
X38100Y455340D01*
X21590Y491490D02*
X21590Y425450D01*
X10160Y419100D02*
X20320Y408940D01*
X20320Y223520D01*
X33020Y414020D02*
X33020Y304404D01*
X21590Y425450D02*
X33020Y414020D01*
X33020Y304404D02*
X41760Y295664D01*
X81280Y45720D02*
X175260Y45720D01*
X45720Y81280D02*
X81280Y45720D01*
X96520Y650240D02*
X10160Y563880D01*
X208280Y650240D02*
X96520Y650240D01*
X10160Y419100D02*
X10160Y563880D01*
X45720Y109220D02*
X33020Y121920D01*
X20320Y121920D01*
X45720Y109220D02*
X45720Y81280D01*
X175260Y45720D02*
X194310Y64770D01*
X197440Y474980D02*
X386080Y474980D01*
X197440Y474980D02*
X190500Y468040D01*
X416560Y444500D02*
X386080Y474980D01*
X393700Y490220D02*
X195580Y490220D01*
X411479Y472441D02*
X393700Y490220D01*
X195580Y490220D02*
X187960Y482600D01*
X400896Y505460D02*
X193040Y505460D01*
X185420Y497840D01*
X400896Y505460D02*
X416560Y521124D01*
X304800Y563880D02*
X375920Y563880D01*
X353060Y520700D02*
X381000Y520700D01*
X160020Y535260D02*
X165100Y540340D01*
X169544Y497840D02*
X160020Y507364D01*
X160020Y535260D01*
X185420Y497840D02*
X169544Y497840D01*
X391160Y548640D02*
X391160Y530860D01*
X381000Y520700D02*
X391160Y530860D01*
X375920Y563880D02*
X391160Y548640D01*
G54D13*
X441960Y63500D02*
X441960Y373380D01*
X454660Y386080D01*
X538480Y386080D01*
X342900Y455340D02*
X342900Y444500D01*
X350520Y436880D02*
X391160Y436880D01*
X398780Y444500D01*
X342900Y444500D02*
X350520Y436880D01*
X20320Y172720D02*
X60960Y172720D01*
X73660Y185420D01*
X73660Y264160D02*
X83820Y274320D01*
X73660Y185420D02*
X73660Y264160D01*
X83820Y274320D02*
X91440Y274320D01*
X20320Y147320D02*
X55880Y147320D01*
X63500Y139700D01*
X63500Y99060D01*
X444500Y480060D02*
X444500Y403860D01*
X472440Y508000D02*
X444500Y480060D01*
X444500Y403860D02*
X462280Y386080D01*
X215900Y525780D02*
X215900Y558800D01*
X180340Y520700D02*
X210820Y520700D01*
X215900Y525780D01*
X177800Y518160D02*
X180340Y520700D01*
X236220Y579120D02*
X381000Y579120D01*
X383540Y576580D01*
X215900Y558800D02*
X236220Y579120D01*
G54D14*
X530900Y686660D02*
X530900Y726400D01*
X525780Y731520D01*
X513080Y853440D02*
X472440Y853440D01*
G54D15*
X472440Y853440D02*
X436880Y817880D01*
G54D16*
X455520Y686660D02*
X485100Y686660D01*
X455520Y686660D02*
X439420Y670560D01*
X439420Y568960D01*
X472440Y535940D01*
X473340Y508900D02*
X473340Y535040D01*
X508000Y599440D02*
X508000Y619160D01*
X480060Y571500D02*
X508000Y599440D01*
G54D17*
X-5080Y-2540D02*
X-5080Y97968D01*
X-5080Y-2540D02*
X52078Y-2540D01*
X566500Y-2540D02*
X509342Y-2540D01*
X566500Y-2540D02*
X566500Y97968D01*
X566500Y1002540D02*
X566500Y902032D01*
X566500Y1002540D02*
X509342Y1002540D01*
X-5080Y1002540D02*
X52078Y1002540D01*
X-5080Y1002540D02*
X-5080Y902032D01*
X-55080Y-2540D02*
X-155080Y-2540D01*
X-105080Y-52540D02*
X-105080Y47460D01*
X-142580Y-2540D02*
G75*
D01*
G02X-142580Y-2540I37500J0*
G01*
X616500Y-2540D02*
X716500Y-2540D01*
X666500Y-52540D02*
X666500Y47460D01*
X629000Y-2540D02*
G75*
D01*
G02X629000Y-2540I37500J0*
G01*
X654000Y-2540D02*
G75*
D01*
G02X654000Y-2540I12500J0*
G01*
X-55080Y1002540D02*
X-155080Y1002540D01*
X-105080Y952540D02*
X-105080Y1052540D01*
X-142580Y1002540D02*
G75*
D01*
G02X-142580Y1002540I37500J0*
G01*
X-130080Y1002540D02*
G75*
D01*
G02X-130080Y1002540I25000J0*
G01*
X-117580Y1002540D02*
G75*
D01*
G02X-117580Y1002540I12500J0*
G01*
G54D18*
X469900Y159324D03*
X526900Y159324D03*
X469900Y115324D03*
X526900Y115324D03*
X347980Y67884D03*
X404980Y67884D03*
X347980Y23884D03*
X404980Y23884D03*
X159720Y23884D03*
X102720Y67884D03*
X159720Y67884D03*
X102720Y23884D03*
X102720Y159324D03*
X159720Y159324D03*
X102720Y115324D03*
X159720Y115324D03*
X102720Y342204D03*
X159720Y342204D03*
X102720Y298204D03*
X159720Y298204D03*
X102720Y250764D03*
X159720Y250764D03*
X102720Y206764D03*
X159720Y206764D03*
X226060Y342204D03*
X283060Y342204D03*
X226060Y298204D03*
X283060Y298204D03*
X226060Y250764D03*
X283060Y250764D03*
X226060Y206764D03*
X283060Y206764D03*
X226060Y159324D03*
X283060Y159324D03*
X226060Y115324D03*
X283060Y115324D03*
X347980Y159324D03*
X404980Y159324D03*
X347980Y115324D03*
X404980Y115324D03*
X347980Y250764D03*
X404980Y250764D03*
X347980Y206764D03*
X404980Y206764D03*
X347980Y342204D03*
X404980Y342204D03*
X347980Y298204D03*
X404980Y298204D03*
X469900Y250764D03*
X526900Y250764D03*
X469900Y206764D03*
X526900Y206764D03*
X469900Y342204D03*
X526900Y342204D03*
X469900Y298204D03*
X526900Y298204D03*
X469900Y67884D03*
X526900Y67884D03*
X469900Y23884D03*
X526900Y23884D03*
X226060Y67884D03*
X283060Y67884D03*
X226060Y23884D03*
X283060Y23884D03*
G54D19*
X91440Y274320D03*
X312420Y274320D03*
X416560Y444500D03*
X63500Y99060D03*
X205740Y45720D03*
X48260Y314960D03*
X45720Y342900D03*
X414020Y599440D03*
X177800Y518160D03*
G54D20*
X538480Y505460D03*
X63500Y386080D03*
X63500Y416560D03*
X233680Y416560D03*
X233680Y386080D03*
X408940Y386080D03*
X528320Y449580D03*
X392900Y414869D03*
X466511Y419100D03*
X496640Y449580D03*
G54D21*
X538480Y535940D03*
X193040Y386080D03*
X193040Y416560D03*
X363220Y416560D03*
X363220Y386080D03*
X538480Y386080D03*
X528320Y419100D03*
X417900Y414869D03*
X466511Y449580D03*
X496640Y419100D03*
G54D22*
X498340Y521240D03*
G54D23*
X473340Y521240D03*
G54D24*
X368300Y540340D03*
X342900Y540340D03*
X317500Y540340D03*
X292100Y540340D03*
X266700Y540340D03*
X241300Y540340D03*
X215900Y540340D03*
X190500Y540340D03*
X165100Y540340D03*
X139700Y540340D03*
X114300Y540340D03*
X88900Y540340D03*
X63500Y540340D03*
X38100Y540340D03*
X368300Y455340D03*
X342900Y455340D03*
X317500Y455340D03*
X292100Y455340D03*
X266700Y455340D03*
X241300Y455340D03*
X215900Y455340D03*
X190500Y455340D03*
X165100Y455340D03*
X139700Y455340D03*
X114300Y455340D03*
X88900Y455340D03*
X63500Y455340D03*
X38100Y455340D03*
G54D25*
X266700Y652780D03*
X398780Y444500D03*
X353060Y622300D03*
X368300Y622300D03*
X60960Y589280D03*
X383540Y576580D03*
X304800Y563880D03*
X353060Y520700D03*
G54D26*
X436880Y817880D03*
G54D27*
X513080Y853440D03*
X513080Y894080D03*
X513080Y812800D03*
G54D28*
X416560Y472441D03*
X416560Y521124D03*
X20320Y147320D03*
X20320Y121920D03*
X20320Y172720D03*
X20320Y198120D03*
X20320Y223520D03*
X495300Y731520D03*
G54D29*
X508000Y619160D03*
G54D30*
X485100Y686660D03*
X530900Y686660D03*
G54D31*
X149860Y599440D03*
X175260Y599440D03*
X200660Y599440D03*
X226060Y599440D03*
X251460Y599440D03*
X276860Y599440D03*
X302260Y599440D03*
X327660Y599440D03*
G54D32*
X487680Y965200D03*
X533400Y965200D03*
G54D33*
X525780Y731520D03*
G54D34*
X480060Y571500D03*

M02*
