G04 Generated by Ultiboard 14.0 *
%FSLAX34Y34*%
%MOMM*%

%ADD10C,0.0001*%
%ADD11C,1.0000*%
%ADD12C,0.6500*%
%ADD13C,0.5000*%
%ADD14C,0.8000*%
%ADD15C,1.5000*%
%ADD16C,0.6000*%
%ADD17C,1.2500*%
%ADD18C,0.7000*%
%ADD19C,0.1270*%
%ADD20C,2.4620*%
%ADD21C,1.2000*%
%ADD22C,1.8000*%
%ADD23C,1.7000*%
%ADD24C,2.1000*%
%ADD25C,1.0000*%
%ADD26R,0.5718X1.4818*%
%ADD27C,0.4232*%
%ADD28C,1.3000*%
%ADD29C,3.6000*%
%ADD30C,2.0000*%
%ADD31C,2.2000*%
%ADD32R,1.4818X0.5718*%
%ADD33C,3.1000*%
%ADD34R,3.2500X2.1500*%
%ADD35R,0.9500X2.1500*%
%ADD36C,1.4000*%


G04 ColorRGB 0000FF for the following layer *
%LNCopper Bottom*%
%LPD*%
G54D10*
G54D11*
X159720Y342204D02*
X102720Y342204D01*
X102720Y159324D02*
X159720Y159324D01*
X102720Y67884D02*
X159720Y67884D01*
X226060Y67884D02*
X283060Y67884D01*
X226060Y159324D02*
X283060Y159324D01*
X226060Y250764D02*
X283060Y250764D01*
X347980Y250764D02*
X404980Y250764D01*
X347980Y159324D02*
X404980Y159324D01*
X347980Y67884D02*
X404980Y67884D01*
X469900Y159324D02*
X526900Y159324D01*
X469900Y67884D02*
X526900Y67884D01*
X469900Y250764D02*
X526900Y250764D01*
X526900Y298204D02*
X102720Y298204D01*
X102720Y342204D02*
X102720Y369720D01*
X86360Y386080D01*
X63500Y386080D01*
X198816Y342204D02*
X283060Y342204D01*
X124460Y416560D02*
X63500Y416560D01*
X198816Y342204D02*
X124460Y416560D01*
X449580Y342204D02*
X426024Y365760D01*
X449580Y342204D02*
X526900Y342204D01*
X537940Y506000D02*
X548640Y495300D01*
X429260Y521124D02*
X416560Y521124D01*
X455084Y495300D02*
X429260Y521124D01*
X521200Y506000D02*
X505960Y521240D01*
X521200Y506000D02*
X537940Y506000D01*
X505960Y521240D02*
X498340Y521240D01*
X528320Y462280D02*
X495300Y495300D01*
X455084Y495300D01*
X528320Y462280D02*
X528320Y449580D01*
X488631Y472441D02*
X496640Y464432D01*
X496640Y449580D01*
X416560Y472441D02*
X488631Y472441D01*
X97640Y206764D02*
X526900Y206764D01*
X548640Y426720D02*
X541020Y419100D01*
X466511Y419100D02*
X541020Y419100D01*
X548640Y495300D02*
X548640Y426720D01*
X102720Y115324D02*
X526900Y115324D01*
X102720Y250764D02*
X159720Y250764D01*
X258400Y434340D02*
X266700Y442640D01*
X193040Y416560D02*
X210820Y434340D01*
X258400Y434340D01*
X190500Y548640D02*
X172720Y566420D01*
X124460Y566420D02*
X109220Y581660D01*
X172720Y566420D02*
X124460Y566420D01*
X109220Y581660D02*
X109220Y614680D01*
X124460Y629920D02*
X309880Y629920D01*
X109220Y614680D02*
X124460Y629920D01*
X414020Y612140D02*
X444500Y642620D01*
X103116Y23884D02*
X526900Y23884D01*
X414020Y586740D02*
X414020Y612140D01*
X429260Y571500D02*
X481100Y571500D01*
X429260Y571500D02*
X414020Y586740D01*
X481100Y571500D02*
X498340Y554260D01*
X312420Y627380D02*
X327660Y612140D01*
X327660Y599440D01*
X498340Y554260D02*
X498340Y521240D01*
X425450Y665480D02*
X444500Y665480D01*
X397510Y665480D02*
X369570Y665480D01*
X341630Y665480D02*
X341630Y697230D01*
X347980Y703580D01*
X416560Y703580D01*
X190500Y533400D02*
X190500Y548640D01*
X241300Y378460D02*
X233680Y386080D01*
X330200Y342204D02*
X293944Y378460D01*
X330200Y342204D02*
X404980Y342204D01*
X293944Y378460D02*
X241300Y378460D01*
X340360Y365760D02*
X299720Y406400D01*
X426024Y365760D02*
X340360Y365760D01*
X299720Y406400D02*
X292100Y406400D01*
X254000Y406400D02*
X243840Y416560D01*
X233680Y416560D01*
X292100Y406400D02*
X254000Y406400D01*
X300109Y426720D02*
X292100Y434729D01*
X292100Y455340D01*
X353060Y386080D02*
X312420Y426720D01*
X363220Y386080D02*
X353060Y386080D01*
X312420Y426720D02*
X300109Y426720D01*
X408940Y386080D02*
X417900Y395040D01*
X417900Y414869D01*
X416560Y444500D02*
X461431Y444500D01*
X466511Y449580D01*
X189230Y731520D02*
X189230Y680720D01*
X217170Y680720D02*
X217170Y669290D01*
X233680Y652780D01*
X266700Y652780D01*
X279400Y665480D01*
X279400Y692360D01*
X189230Y680720D02*
X189230Y651510D01*
X167640Y629920D01*
X256400Y692360D02*
X256400Y706260D01*
X248920Y713740D01*
X218440Y716669D02*
X221369Y713740D01*
X248920Y713740D02*
X221369Y713740D01*
X218440Y730250D02*
X217170Y731520D01*
X218440Y716669D02*
X218440Y730250D01*
X241300Y546100D02*
X223520Y563880D01*
X241300Y540340D02*
X241300Y546100D01*
X317500Y449580D02*
X317500Y455340D01*
X350520Y416560D02*
X317500Y449580D01*
X350520Y416560D02*
X363220Y416560D01*
X208280Y563880D02*
X200660Y571500D01*
X223520Y563880D02*
X208280Y563880D01*
X200660Y571500D02*
X200660Y599440D01*
X292100Y548640D02*
X251460Y589280D01*
X292100Y540340D02*
X292100Y548640D01*
X251460Y589280D02*
X251460Y599440D01*
X266700Y546100D02*
X226060Y586740D01*
X226060Y599440D01*
X266700Y540340D02*
X266700Y546100D01*
X213360Y510540D02*
X213360Y457880D01*
X215900Y455340D01*
X266700Y442640D02*
X266700Y476250D01*
X264160Y478790D01*
X294640Y478790D02*
X294640Y457880D01*
X292100Y455340D01*
X322580Y476250D02*
X322580Y460420D01*
X322580Y476250D02*
X325120Y478790D01*
X322580Y460420D02*
X317500Y455340D01*
X241300Y455340D02*
X241300Y471170D01*
X233680Y478790D01*
X217170Y506730D02*
X325120Y506730D01*
X217170Y506730D02*
X190500Y533400D01*
X177800Y518160D02*
X165100Y505460D01*
X165100Y455340D02*
X165100Y505460D01*
X429260Y716280D02*
X429260Y810260D01*
X416560Y703580D02*
X429260Y716280D01*
X429260Y810260D02*
X436880Y817880D01*
X248920Y713740D02*
X259080Y723900D01*
X312420Y723900D01*
X322580Y713740D01*
X322580Y711200D01*
X302260Y599440D02*
X302260Y566420D01*
X304800Y563880D01*
X368300Y462280D02*
X353060Y477520D01*
X368300Y455340D02*
X368300Y462280D01*
X353060Y477520D02*
X353060Y520700D01*
G54D12*
X91440Y274320D02*
X312420Y274320D01*
X63500Y99060D02*
X71120Y91440D01*
X45720Y416560D02*
X45720Y370840D01*
X38100Y540340D02*
X38100Y485140D01*
X45720Y370840D02*
X76200Y340360D01*
X79812Y115372D02*
X102672Y115372D01*
X63500Y131684D02*
X79860Y115324D01*
X76200Y228204D02*
X97640Y206764D01*
X45720Y342900D02*
X63500Y325120D01*
X347980Y581660D02*
X353060Y586740D01*
X353060Y622300D01*
X368300Y622300D02*
X368300Y581660D01*
X363220Y576580D01*
X48260Y314960D02*
X48260Y243840D01*
X50800Y241300D01*
X50800Y200660D02*
X50800Y241300D01*
X63500Y131684D02*
X63500Y325120D01*
X76200Y228204D02*
X76200Y340360D01*
X45720Y195580D02*
X45720Y81280D01*
X50800Y200660D02*
X45720Y195580D01*
X45720Y81280D02*
X103116Y23884D01*
X60960Y589280D02*
X55880Y589280D01*
X17780Y551180D01*
X246380Y716280D02*
X243840Y713740D01*
X398780Y444500D02*
X398780Y472440D01*
X398780Y581660D02*
X398780Y543560D01*
X383540Y632460D02*
X375920Y640080D01*
X383540Y576580D02*
X383540Y632460D01*
X10160Y436880D02*
X30480Y416560D01*
X30480Y243840D01*
X17780Y487680D02*
X10160Y480060D01*
X17780Y551180D02*
X17780Y487680D01*
X10160Y480060D02*
X10160Y436880D01*
X177800Y91440D02*
X198120Y71120D01*
X71120Y91440D02*
X177800Y91440D01*
X198120Y48260D02*
X200660Y45720D01*
X198120Y48260D02*
X198120Y71120D01*
X200660Y45720D02*
X205740Y45720D01*
X396240Y474980D02*
X396240Y541020D01*
X398780Y472440D02*
X396240Y474980D01*
X398780Y543560D02*
X396240Y541020D01*
X330200Y640080D02*
X322580Y647700D01*
X375920Y640080D02*
X330200Y640080D01*
X322580Y647700D02*
X322580Y711200D01*
G54D13*
X45720Y416560D02*
X45720Y421640D01*
X21590Y468630D02*
X38100Y485140D01*
X45720Y421640D02*
X21590Y445770D01*
X21590Y468630D01*
X20320Y198120D02*
X30480Y198120D01*
X38100Y205740D01*
X38100Y236220D02*
X30480Y243840D01*
X38100Y205740D02*
X38100Y236220D01*
X417900Y417760D02*
X417900Y414869D01*
X403860Y431800D02*
X417900Y417760D01*
X387350Y435610D02*
X391160Y431800D01*
X403860Y431800D01*
X387350Y466090D02*
X387350Y435610D01*
X375920Y477520D02*
X387350Y466090D01*
G54D14*
X302400Y692360D02*
X302400Y637400D01*
X312420Y627380D01*
X398780Y660400D02*
X398780Y581660D01*
X398780Y660400D02*
X396240Y662940D01*
G54D15*
X463550Y941070D02*
X487680Y965200D01*
X525780Y731520D02*
X525780Y754380D01*
X533400Y914400D02*
X513080Y894080D01*
X533400Y914400D02*
X533400Y965200D01*
X525780Y754380D02*
X546100Y774700D01*
X536627Y853440D02*
X546100Y843967D01*
X546100Y774700D02*
X546100Y843967D01*
X536627Y853440D02*
X513080Y853440D01*
X495300Y762000D02*
X463550Y793750D01*
X463550Y941070D01*
X495300Y762000D02*
X495300Y731520D01*
G54D16*
X363220Y576580D02*
X342900Y556260D01*
X342900Y541020D01*
X317500Y551180D02*
X347980Y581660D01*
X317500Y540340D02*
X317500Y551180D01*
G54D17*
X444500Y642620D02*
X444500Y680720D01*
X444500Y680720D02*
X487680Y723900D01*
X495300Y731520D01*
G54D18*
X375920Y532720D02*
X375920Y477520D01*
X375920Y532720D02*
X368300Y540340D01*
G54D19*
X-5080Y-2540D02*
X-5080Y97968D01*
X-5080Y-2540D02*
X52078Y-2540D01*
X566500Y-2540D02*
X509342Y-2540D01*
X566500Y-2540D02*
X566500Y97968D01*
X566500Y1002540D02*
X566500Y902032D01*
X566500Y1002540D02*
X509342Y1002540D01*
X-5080Y1002540D02*
X52078Y1002540D01*
X-5080Y1002540D02*
X-5080Y902032D01*
X-55080Y-2540D02*
X-155080Y-2540D01*
X-105080Y-52540D02*
X-105080Y47460D01*
X-142580Y-2540D02*
G75*
D01*
G02X-142580Y-2540I37500J0*
G01*
X616500Y-2540D02*
X716500Y-2540D01*
X666500Y-52540D02*
X666500Y47460D01*
X629000Y-2540D02*
G75*
D01*
G02X629000Y-2540I37500J0*
G01*
X654000Y-2540D02*
G75*
D01*
G02X654000Y-2540I12500J0*
G01*
X-55080Y1002540D02*
X-155080Y1002540D01*
X-105080Y952540D02*
X-105080Y1052540D01*
X-142580Y1002540D02*
G75*
D01*
G02X-142580Y1002540I37500J0*
G01*
X-130080Y1002540D02*
G75*
D01*
G02X-130080Y1002540I25000J0*
G01*
X-117580Y1002540D02*
G75*
D01*
G02X-117580Y1002540I12500J0*
G01*
G54D20*
X469900Y159324D03*
X526900Y159324D03*
X469900Y115324D03*
X526900Y115324D03*
X347980Y67884D03*
X404980Y67884D03*
X347980Y23884D03*
X404980Y23884D03*
X159720Y23884D03*
X102720Y67884D03*
X159720Y67884D03*
X102720Y23884D03*
X102720Y159324D03*
X159720Y159324D03*
X102720Y115324D03*
X159720Y115324D03*
X102720Y342204D03*
X159720Y342204D03*
X102720Y298204D03*
X159720Y298204D03*
X102720Y250764D03*
X159720Y250764D03*
X102720Y206764D03*
X159720Y206764D03*
X226060Y342204D03*
X283060Y342204D03*
X226060Y298204D03*
X283060Y298204D03*
X226060Y250764D03*
X283060Y250764D03*
X226060Y206764D03*
X283060Y206764D03*
X226060Y159324D03*
X283060Y159324D03*
X226060Y115324D03*
X283060Y115324D03*
X347980Y159324D03*
X404980Y159324D03*
X347980Y115324D03*
X404980Y115324D03*
X347980Y250764D03*
X404980Y250764D03*
X347980Y206764D03*
X404980Y206764D03*
X347980Y342204D03*
X404980Y342204D03*
X347980Y298204D03*
X404980Y298204D03*
X469900Y250764D03*
X526900Y250764D03*
X469900Y206764D03*
X526900Y206764D03*
X469900Y342204D03*
X526900Y342204D03*
X469900Y298204D03*
X526900Y298204D03*
X469900Y67884D03*
X526900Y67884D03*
X469900Y23884D03*
X526900Y23884D03*
X226060Y67884D03*
X283060Y67884D03*
X226060Y23884D03*
X283060Y23884D03*
G54D21*
X91440Y274320D03*
X312420Y274320D03*
X416560Y444500D03*
X63500Y99060D03*
X205740Y45720D03*
X48260Y314960D03*
X45720Y342900D03*
X414020Y599440D03*
X177800Y518160D03*
G54D22*
X538480Y505460D03*
X538480Y535940D03*
X63500Y386080D03*
X193040Y386080D03*
X63500Y416560D03*
X193040Y416560D03*
X233680Y416560D03*
X363220Y416560D03*
X363220Y386080D03*
X233680Y386080D03*
X408940Y386080D03*
X538480Y386080D03*
X528320Y449580D03*
X528320Y419100D03*
X392900Y414869D03*
X417900Y414869D03*
X466511Y419100D03*
X466511Y449580D03*
X496640Y449580D03*
X496640Y419100D03*
G54D23*
X498340Y521240D03*
X473340Y521240D03*
G54D24*
X368300Y540340D03*
X342900Y540340D03*
X317500Y540340D03*
X292100Y540340D03*
X266700Y540340D03*
X241300Y540340D03*
X215900Y540340D03*
X190500Y540340D03*
X165100Y540340D03*
X139700Y540340D03*
X114300Y540340D03*
X88900Y540340D03*
X63500Y540340D03*
X38100Y540340D03*
X368300Y455340D03*
X342900Y455340D03*
X317500Y455340D03*
X292100Y455340D03*
X266700Y455340D03*
X241300Y455340D03*
X215900Y455340D03*
X190500Y455340D03*
X165100Y455340D03*
X139700Y455340D03*
X114300Y455340D03*
X88900Y455340D03*
X63500Y455340D03*
X38100Y455340D03*
G54D25*
X266700Y652780D03*
X398780Y444500D03*
X353060Y622300D03*
X368300Y622300D03*
X60960Y589280D03*
X383540Y576580D03*
X304800Y563880D03*
X353060Y520700D03*
G54D26*
X341630Y665480D03*
X369570Y665480D03*
X425450Y665480D03*
X397510Y665480D03*
X189230Y731520D03*
X217170Y731520D03*
X189230Y680720D03*
X217170Y680720D03*
G54D27*
X338771Y658071D02*
X344489Y658071D01*
X344489Y672889D01*
X338771Y672889D01*
X338771Y658071D01*D02*
X366711Y658071D02*
X372429Y658071D01*
X372429Y672889D01*
X366711Y672889D01*
X366711Y658071D01*D02*
X422591Y658071D02*
X428309Y658071D01*
X428309Y672889D01*
X422591Y672889D01*
X422591Y658071D01*D02*
X394651Y658071D02*
X400369Y658071D01*
X400369Y672889D01*
X394651Y672889D01*
X394651Y658071D01*D02*
X186371Y724111D02*
X192089Y724111D01*
X192089Y738929D01*
X186371Y738929D01*
X186371Y724111D01*D02*
X214311Y724111D02*
X220029Y724111D01*
X220029Y738929D01*
X214311Y738929D01*
X214311Y724111D01*D02*
X186371Y673311D02*
X192089Y673311D01*
X192089Y688129D01*
X186371Y688129D01*
X186371Y673311D01*D02*
X214311Y673311D02*
X220029Y673311D01*
X220029Y688129D01*
X214311Y688129D01*
X214311Y673311D01*D02*
X226271Y503871D02*
X241089Y503871D01*
X241089Y509589D01*
X226271Y509589D01*
X226271Y503871D01*D02*
X226271Y475931D02*
X241089Y475931D01*
X241089Y481649D01*
X226271Y481649D01*
X226271Y475931D01*D02*
X256751Y475931D02*
X271569Y475931D01*
X271569Y481649D01*
X256751Y481649D01*
X256751Y475931D01*D02*
X256751Y503871D02*
X271569Y503871D01*
X271569Y509589D01*
X256751Y509589D01*
X256751Y503871D01*D02*
X287231Y503871D02*
X302049Y503871D01*
X302049Y509589D01*
X287231Y509589D01*
X287231Y503871D01*D02*
X287231Y475931D02*
X302049Y475931D01*
X302049Y481649D01*
X287231Y481649D01*
X287231Y475931D01*D02*
X317711Y475931D02*
X332529Y475931D01*
X332529Y481649D01*
X317711Y481649D01*
X317711Y475931D01*D02*
X317711Y503871D02*
X332529Y503871D01*
X332529Y509589D01*
X317711Y509589D01*
X317711Y503871D01*D02*
G54D28*
X436880Y817880D03*
G54D29*
X513080Y853440D03*
X513080Y894080D03*
X513080Y812800D03*
G54D30*
X416560Y472441D03*
X416560Y521124D03*
X20320Y147320D03*
X20320Y121920D03*
X20320Y172720D03*
X20320Y198120D03*
X20320Y223520D03*
X495300Y731520D03*
X525780Y731520D03*
G54D31*
X149860Y599440D03*
X175260Y599440D03*
X200660Y599440D03*
X226060Y599440D03*
X251460Y599440D03*
X276860Y599440D03*
X302260Y599440D03*
X327660Y599440D03*
G54D32*
X233680Y506730D03*
X233680Y478790D03*
X264160Y478790D03*
X264160Y506730D03*
X294640Y506730D03*
X294640Y478790D03*
X325120Y478790D03*
X325120Y506730D03*
G54D33*
X487680Y965200D03*
X533400Y965200D03*
G54D34*
X279400Y750360D03*
G54D35*
X256400Y692360D03*
X279400Y692360D03*
X302400Y692360D03*
G54D36*
X480060Y571500D03*

M02*
