G04 Generated by Ultiboard 14.0 *
%FSLAX34Y34*%
%MOMM*%

%ADD10C,0.0001*%
%ADD11C,0.1270*%
%ADD12C,2.4620*%
%ADD13C,0.6000*%
%ADD14C,1.8000*%
%ADD15C,1.7000*%
%ADD16C,2.1000*%
%ADD17R,0.5718X1.4818*%
%ADD18C,0.4232*%
%ADD19C,0.7000*%
%ADD20C,3.6000*%
%ADD21C,2.0000*%
%ADD22C,2.2000*%
%ADD23R,1.4818X0.5718*%
%ADD24C,3.1000*%
%ADD25R,3.2500X2.1500*%
%ADD26R,0.9500X2.1500*%


G04 ColorRGB 9900CC for the following layer *
%LNSolder Mask Bottom*%
%LPD*%
G54D10*
G54D11*
X-5080Y-2540D02*
X-5080Y97968D01*
X-5080Y-2540D02*
X52078Y-2540D01*
X566500Y-2540D02*
X509342Y-2540D01*
X566500Y-2540D02*
X566500Y97968D01*
X566500Y1002540D02*
X566500Y902032D01*
X566500Y1002540D02*
X509342Y1002540D01*
X-5080Y1002540D02*
X52078Y1002540D01*
X-5080Y1002540D02*
X-5080Y902032D01*
X-55080Y-2540D02*
X-155080Y-2540D01*
X-105080Y-52540D02*
X-105080Y47460D01*
X-142580Y-2540D02*
G75*
D01*
G02X-142580Y-2540I37500J0*
G01*
X616500Y-2540D02*
X716500Y-2540D01*
X666500Y-52540D02*
X666500Y47460D01*
X629000Y-2540D02*
G75*
D01*
G02X629000Y-2540I37500J0*
G01*
X654000Y-2540D02*
G75*
D01*
G02X654000Y-2540I12500J0*
G01*
X-55080Y1002540D02*
X-155080Y1002540D01*
X-105080Y952540D02*
X-105080Y1052540D01*
X-142580Y1002540D02*
G75*
D01*
G02X-142580Y1002540I37500J0*
G01*
X-130080Y1002540D02*
G75*
D01*
G02X-130080Y1002540I25000J0*
G01*
X-117580Y1002540D02*
G75*
D01*
G02X-117580Y1002540I12500J0*
G01*
G54D12*
X469900Y159324D03*
X526900Y159324D03*
X469900Y115324D03*
X526900Y115324D03*
X347980Y67884D03*
X404980Y67884D03*
X347980Y23884D03*
X404980Y23884D03*
X159720Y23884D03*
X102720Y67884D03*
X159720Y67884D03*
X102720Y23884D03*
X102720Y159324D03*
X159720Y159324D03*
X102720Y115324D03*
X159720Y115324D03*
X102720Y342204D03*
X159720Y342204D03*
X102720Y298204D03*
X159720Y298204D03*
X102720Y250764D03*
X159720Y250764D03*
X102720Y206764D03*
X159720Y206764D03*
X226060Y342204D03*
X283060Y342204D03*
X226060Y298204D03*
X283060Y298204D03*
X226060Y250764D03*
X283060Y250764D03*
X226060Y206764D03*
X283060Y206764D03*
X226060Y159324D03*
X283060Y159324D03*
X226060Y115324D03*
X283060Y115324D03*
X347980Y159324D03*
X404980Y159324D03*
X347980Y115324D03*
X404980Y115324D03*
X347980Y250764D03*
X404980Y250764D03*
X347980Y206764D03*
X404980Y206764D03*
X347980Y342204D03*
X404980Y342204D03*
X347980Y298204D03*
X404980Y298204D03*
X469900Y250764D03*
X526900Y250764D03*
X469900Y206764D03*
X526900Y206764D03*
X469900Y342204D03*
X526900Y342204D03*
X469900Y298204D03*
X526900Y298204D03*
X469900Y67884D03*
X526900Y67884D03*
X469900Y23884D03*
X526900Y23884D03*
X226060Y67884D03*
X283060Y67884D03*
X226060Y23884D03*
X283060Y23884D03*
G54D13*
X91440Y274320D03*
X312420Y274320D03*
X416560Y444500D03*
X63500Y99060D03*
X205740Y45720D03*
X48260Y314960D03*
X45720Y342900D03*
X266700Y652780D03*
X398780Y444500D03*
X414020Y599440D03*
X353060Y622300D03*
X368300Y622300D03*
X60960Y589280D03*
X383540Y576580D03*
X304800Y563880D03*
X353060Y520700D03*
X177800Y518160D03*
X480060Y571500D03*
G54D14*
X538480Y505460D03*
X538480Y535940D03*
X63500Y386080D03*
X193040Y386080D03*
X63500Y416560D03*
X193040Y416560D03*
X233680Y416560D03*
X363220Y416560D03*
X363220Y386080D03*
X233680Y386080D03*
X408940Y386080D03*
X538480Y386080D03*
X528320Y449580D03*
X528320Y419100D03*
X392900Y414869D03*
X417900Y414869D03*
X466511Y419100D03*
X466511Y449580D03*
X496640Y449580D03*
X496640Y419100D03*
G54D15*
X498340Y521240D03*
X473340Y521240D03*
G54D16*
X368300Y540340D03*
X342900Y540340D03*
X317500Y540340D03*
X292100Y540340D03*
X266700Y540340D03*
X241300Y540340D03*
X215900Y540340D03*
X190500Y540340D03*
X165100Y540340D03*
X139700Y540340D03*
X114300Y540340D03*
X88900Y540340D03*
X63500Y540340D03*
X38100Y540340D03*
X368300Y455340D03*
X342900Y455340D03*
X317500Y455340D03*
X292100Y455340D03*
X266700Y455340D03*
X241300Y455340D03*
X215900Y455340D03*
X190500Y455340D03*
X165100Y455340D03*
X139700Y455340D03*
X114300Y455340D03*
X88900Y455340D03*
X63500Y455340D03*
X38100Y455340D03*
G54D17*
X341630Y665480D03*
X369570Y665480D03*
X425450Y665480D03*
X397510Y665480D03*
X189230Y731520D03*
X217170Y731520D03*
X189230Y680720D03*
X217170Y680720D03*
G54D18*
X338771Y658071D02*
X344489Y658071D01*
X344489Y672889D01*
X338771Y672889D01*
X338771Y658071D01*D02*
X366711Y658071D02*
X372429Y658071D01*
X372429Y672889D01*
X366711Y672889D01*
X366711Y658071D01*D02*
X422591Y658071D02*
X428309Y658071D01*
X428309Y672889D01*
X422591Y672889D01*
X422591Y658071D01*D02*
X394651Y658071D02*
X400369Y658071D01*
X400369Y672889D01*
X394651Y672889D01*
X394651Y658071D01*D02*
X186371Y724111D02*
X192089Y724111D01*
X192089Y738929D01*
X186371Y738929D01*
X186371Y724111D01*D02*
X214311Y724111D02*
X220029Y724111D01*
X220029Y738929D01*
X214311Y738929D01*
X214311Y724111D01*D02*
X186371Y673311D02*
X192089Y673311D01*
X192089Y688129D01*
X186371Y688129D01*
X186371Y673311D01*D02*
X214311Y673311D02*
X220029Y673311D01*
X220029Y688129D01*
X214311Y688129D01*
X214311Y673311D01*D02*
X226271Y503871D02*
X241089Y503871D01*
X241089Y509589D01*
X226271Y509589D01*
X226271Y503871D01*D02*
X226271Y475931D02*
X241089Y475931D01*
X241089Y481649D01*
X226271Y481649D01*
X226271Y475931D01*D02*
X256751Y475931D02*
X271569Y475931D01*
X271569Y481649D01*
X256751Y481649D01*
X256751Y475931D01*D02*
X256751Y503871D02*
X271569Y503871D01*
X271569Y509589D01*
X256751Y509589D01*
X256751Y503871D01*D02*
X287231Y503871D02*
X302049Y503871D01*
X302049Y509589D01*
X287231Y509589D01*
X287231Y503871D01*D02*
X287231Y475931D02*
X302049Y475931D01*
X302049Y481649D01*
X287231Y481649D01*
X287231Y475931D01*D02*
X317711Y475931D02*
X332529Y475931D01*
X332529Y481649D01*
X317711Y481649D01*
X317711Y475931D01*D02*
X317711Y503871D02*
X332529Y503871D01*
X332529Y509589D01*
X317711Y509589D01*
X317711Y503871D01*D02*
G54D19*
X436880Y817880D03*
G54D20*
X513080Y853440D03*
X513080Y894080D03*
X513080Y812800D03*
G54D21*
X416560Y472441D03*
X416560Y521124D03*
X20320Y147320D03*
X20320Y121920D03*
X20320Y172720D03*
X20320Y198120D03*
X20320Y223520D03*
X495300Y731520D03*
X525780Y731520D03*
G54D22*
X149860Y599440D03*
X175260Y599440D03*
X200660Y599440D03*
X226060Y599440D03*
X251460Y599440D03*
X276860Y599440D03*
X302260Y599440D03*
X327660Y599440D03*
G54D23*
X233680Y506730D03*
X233680Y478790D03*
X264160Y478790D03*
X264160Y506730D03*
X294640Y506730D03*
X294640Y478790D03*
X325120Y478790D03*
X325120Y506730D03*
G54D24*
X487680Y965200D03*
X533400Y965200D03*
G54D25*
X279400Y750360D03*
G54D26*
X256400Y692360D03*
X279400Y692360D03*
X302400Y692360D03*

M02*
