G04 Generated by Ultiboard 14.0 *
%FSLAX34Y34*%
%MOMM*%

%ADD10C,0.0001*%
%ADD11C,0.0013*%
%ADD12C,0.2222*%
%ADD13C,0.2933*%
%ADD14C,0.1556*%
%ADD15C,0.1000*%
%ADD16C,0.2032*%
%ADD17C,0.2667*%
%ADD18C,0.0010*%
%ADD19C,0.4000*%
%ADD20C,0.2000*%
%ADD21C,0.2500*%
%ADD22C,0.1976*%
%ADD23C,0.1778*%
%ADD24C,0.1270*%


G04 ColorRGB FFFF00 for the following layer *
%LNSilkscreen Top*%
%LPD*%
G54D10*
G54D11*
X454660Y174564D02*
X541020Y174564D01*
X541020Y100904D01*
X454660Y100904D01*
X454660Y174564D01*
X332740Y83124D02*
X419100Y83124D01*
X419100Y9464D01*
X332740Y9464D01*
X332740Y83124D01*
X87480Y83124D02*
X173840Y83124D01*
X173840Y9464D01*
X87480Y9464D01*
X87480Y83124D01*
X87480Y174564D02*
X173840Y174564D01*
X173840Y100904D01*
X87480Y100904D01*
X87480Y174564D01*
X87480Y357444D02*
X173840Y357444D01*
X173840Y283784D01*
X87480Y283784D01*
X87480Y357444D01*
X87480Y266004D02*
X173840Y266004D01*
X173840Y192344D01*
X87480Y192344D01*
X87480Y266004D01*
X210820Y357444D02*
X297180Y357444D01*
X297180Y283784D01*
X210820Y283784D01*
X210820Y357444D01*
X210820Y266004D02*
X297180Y266004D01*
X297180Y192344D01*
X210820Y192344D01*
X210820Y266004D01*
X210820Y174564D02*
X297180Y174564D01*
X297180Y100904D01*
X210820Y100904D01*
X210820Y174564D01*
X332740Y174564D02*
X419100Y174564D01*
X419100Y100904D01*
X332740Y100904D01*
X332740Y174564D01*
X332740Y266004D02*
X419100Y266004D01*
X419100Y192344D01*
X332740Y192344D01*
X332740Y266004D01*
X332740Y357444D02*
X419100Y357444D01*
X419100Y283784D01*
X332740Y283784D01*
X332740Y357444D01*
X454660Y266004D02*
X541020Y266004D01*
X541020Y192344D01*
X454660Y192344D01*
X454660Y266004D01*
X454660Y357444D02*
X541020Y357444D01*
X541020Y283784D01*
X454660Y283784D01*
X454660Y357444D01*
X454660Y83124D02*
X541020Y83124D01*
X541020Y9464D01*
X454660Y9464D01*
X454660Y83124D01*
X210820Y83124D02*
X297180Y83124D01*
X297180Y9464D01*
X210820Y9464D01*
X210820Y83124D01*
G54D12*
X186842Y710726D02*
X186842Y725011D01*
X195376Y710726D01*
X195376Y725011D01*
X199642Y713583D02*
X202487Y710726D01*
X205331Y710726D01*
X208176Y713583D01*
X208176Y717869D01*
X205331Y720726D01*
X202487Y720726D01*
X199642Y717869D01*
X199642Y713583D01*
X212442Y716440D02*
X215287Y716440D01*
X219553Y720726D01*
X215287Y716440D02*
X219553Y710726D01*
X212442Y710726D02*
X212442Y725011D01*
X229509Y710726D02*
X229509Y719297D01*
X229509Y722154D02*
X229509Y723583D01*
X239464Y720726D02*
X243731Y720726D01*
X245153Y719297D01*
X245153Y712154D01*
X243731Y710726D01*
X239464Y710726D01*
X238042Y712154D01*
X238042Y715011D01*
X239464Y716440D01*
X245153Y716440D01*
X245153Y712154D02*
X246576Y710726D01*
X272176Y725011D02*
X263642Y725011D01*
X263642Y719297D01*
X269331Y719297D01*
X272176Y716440D01*
X272176Y713583D01*
X269331Y710726D01*
X263642Y710726D01*
X277864Y722154D02*
X280709Y725011D01*
X280709Y710726D01*
X276442Y710726D02*
X284976Y710726D01*
X290664Y722154D02*
X293509Y725011D01*
X293509Y710726D01*
X289242Y710726D02*
X297776Y710726D01*
X302042Y722154D02*
X304887Y725011D01*
X307731Y725011D01*
X310576Y722154D01*
X310576Y713583D01*
X307731Y710726D01*
X304887Y710726D01*
X302042Y713583D01*
X302042Y722154D01*
X310576Y722154D02*
X302042Y713583D01*
X386282Y870746D02*
X386282Y885031D01*
X391971Y885031D01*
X394816Y882174D01*
X394816Y880746D01*
X391971Y877889D01*
X386282Y877889D01*
X399082Y873603D02*
X401927Y870746D01*
X404771Y870746D01*
X407616Y873603D01*
X407616Y877889D01*
X404771Y880746D01*
X401927Y880746D01*
X399082Y877889D01*
X399082Y873603D01*
X411882Y880746D02*
X413304Y870746D01*
X416149Y875031D01*
X418993Y870746D01*
X420416Y880746D01*
X433216Y873603D02*
X430371Y870746D01*
X427527Y870746D01*
X424682Y873603D01*
X424682Y877889D01*
X427527Y880746D01*
X430371Y880746D01*
X433216Y877889D01*
X431793Y876460D01*
X424682Y876460D01*
X437482Y876460D02*
X441749Y880746D01*
X443171Y880746D01*
X446016Y877889D01*
X437482Y870746D02*
X437482Y880746D01*
X379882Y853603D02*
X382727Y850746D01*
X385571Y850746D01*
X388416Y853603D01*
X379882Y857889D01*
X382727Y860746D01*
X385571Y860746D01*
X388416Y857889D01*
X392682Y860746D02*
X394104Y850746D01*
X396949Y855031D01*
X399793Y850746D01*
X401216Y860746D01*
X409749Y850746D02*
X409749Y859317D01*
X409749Y862174D02*
X409749Y863603D01*
X425393Y852174D02*
X423971Y850746D01*
X422549Y852174D01*
X422549Y865031D01*
X419704Y860746D02*
X425393Y860746D01*
X438193Y852174D02*
X436771Y850746D01*
X433927Y850746D01*
X431082Y853603D01*
X431082Y857889D01*
X433927Y860746D01*
X436771Y860746D01*
X438193Y859317D01*
X443882Y857889D02*
X446727Y860746D01*
X449571Y860746D01*
X452416Y857889D01*
X452416Y850746D01*
X443882Y865031D02*
X443882Y850746D01*
X43282Y489746D02*
X43282Y498317D01*
X46127Y504031D01*
X48971Y504031D01*
X51816Y498317D01*
X51816Y489746D01*
X43282Y494031D02*
X51816Y494031D01*
X63193Y491174D02*
X61771Y489746D01*
X60349Y491174D01*
X60349Y504031D01*
X57504Y499746D02*
X63193Y499746D01*
X68882Y489746D02*
X68882Y498317D01*
X68882Y499746D01*
X68882Y498317D02*
X70304Y499746D01*
X71727Y499746D01*
X73149Y498317D01*
X74571Y499746D01*
X75993Y499746D01*
X77416Y498317D01*
X77416Y489746D01*
X73149Y498317D02*
X73149Y489746D01*
X90216Y492603D02*
X87371Y489746D01*
X84527Y489746D01*
X81682Y492603D01*
X81682Y496889D01*
X84527Y499746D01*
X87371Y499746D01*
X90216Y496889D01*
X88793Y495460D01*
X81682Y495460D01*
X94482Y488317D02*
X97327Y485460D01*
X100171Y485460D01*
X103016Y488317D01*
X103016Y492603D01*
X103016Y496889D01*
X100171Y499746D01*
X97327Y499746D01*
X94482Y496889D01*
X94482Y492603D01*
X97327Y489746D01*
X100171Y489746D01*
X103016Y492603D01*
X108704Y499746D02*
X112971Y499746D01*
X114393Y498317D01*
X114393Y491174D01*
X112971Y489746D01*
X108704Y489746D01*
X107282Y491174D01*
X107282Y494031D01*
X108704Y495460D01*
X114393Y495460D01*
X114393Y491174D02*
X115816Y489746D01*
X121504Y502603D02*
X122927Y504031D01*
X125771Y504031D01*
X128616Y501174D01*
X128616Y498317D01*
X127193Y496889D01*
X128616Y495460D01*
X128616Y492603D01*
X125771Y489746D01*
X122927Y489746D01*
X121504Y491174D01*
X122927Y496889D02*
X127193Y496889D01*
X132882Y501174D02*
X135727Y504031D01*
X138571Y504031D01*
X141416Y501174D01*
X141416Y499746D01*
X132882Y489746D01*
X141416Y489746D01*
X141416Y491174D01*
X151371Y489746D02*
X148527Y489746D01*
X145682Y492603D01*
X145682Y495460D01*
X147104Y496889D01*
X145682Y498317D01*
X145682Y501174D01*
X148527Y504031D01*
X151371Y504031D01*
X154216Y501174D01*
X154216Y498317D01*
X152793Y496889D01*
X154216Y495460D01*
X154216Y492603D01*
X151371Y489746D01*
X147104Y496889D02*
X152793Y496889D01*
X158482Y492603D02*
X161327Y489746D01*
X164171Y489746D01*
X167016Y492603D01*
X167016Y496889D01*
X164171Y499746D01*
X161327Y499746D01*
X158482Y496889D01*
X158482Y485460D02*
X158482Y499746D01*
G54D13*
X140104Y806643D02*
X146362Y806643D01*
X146362Y797214D01*
X140104Y790929D01*
X133847Y790929D01*
X127589Y797214D01*
X127589Y816071D01*
X133847Y822357D01*
X146362Y822357D01*
X174522Y797214D02*
X168264Y790929D01*
X162007Y790929D01*
X155749Y797214D01*
X155749Y816071D01*
X162007Y822357D01*
X168264Y822357D01*
X174522Y816071D01*
X187038Y812929D02*
X196424Y812929D01*
X199553Y809786D01*
X199553Y794071D01*
X196424Y790929D01*
X187038Y790929D01*
X183909Y794071D01*
X183909Y800357D01*
X187038Y803500D01*
X199553Y803500D01*
X199553Y794071D02*
X202682Y790929D01*
X215198Y822357D02*
X215198Y797214D01*
X221456Y790929D01*
X255873Y794071D02*
X252744Y790929D01*
X246487Y790929D01*
X240229Y797214D01*
X240229Y806643D01*
X246487Y812929D01*
X252744Y812929D01*
X255873Y809786D01*
X299678Y819214D02*
X302807Y822357D01*
X309064Y822357D01*
X315322Y816071D01*
X315322Y809786D01*
X312193Y806643D01*
X315322Y803500D01*
X315322Y797214D01*
X309064Y790929D01*
X302807Y790929D01*
X299678Y794071D01*
X302807Y806643D02*
X312193Y806643D01*
X334096Y790929D02*
X334096Y794071D01*
X352869Y816071D02*
X359127Y822357D01*
X365384Y822357D01*
X371642Y816071D01*
X371642Y797214D01*
X365384Y790929D01*
X359127Y790929D01*
X352869Y797214D01*
X352869Y816071D01*
X371642Y816071D02*
X352869Y797214D01*
G54D14*
X537109Y484340D02*
X535118Y482340D01*
X533127Y482340D01*
X531136Y484340D01*
X531136Y490340D01*
X533127Y492340D01*
X535118Y492340D01*
X537109Y490340D01*
X546069Y486340D02*
X540096Y486340D01*
X545073Y492340D01*
X545073Y482340D01*
X544078Y482340D02*
X546069Y482340D01*
X527669Y465980D02*
X525678Y463980D01*
X523687Y463980D01*
X521696Y465980D01*
X521696Y471980D01*
X523687Y473980D01*
X525678Y473980D01*
X527669Y471980D01*
X531651Y472980D02*
X532647Y473980D01*
X534638Y473980D01*
X536629Y471980D01*
X536629Y469980D01*
X535633Y468980D01*
X536629Y467980D01*
X536629Y465980D01*
X534638Y463980D01*
X532647Y463980D01*
X531651Y464980D01*
X532647Y468980D02*
X535633Y468980D01*
X521696Y583200D02*
X521696Y575200D01*
X523687Y573200D01*
X525678Y573200D01*
X527669Y575200D01*
X527669Y583200D01*
X531651Y582200D02*
X532647Y583200D01*
X534638Y583200D01*
X536629Y581200D01*
X536629Y579200D01*
X535633Y578200D01*
X536629Y577200D01*
X536629Y575200D01*
X534638Y573200D01*
X532647Y573200D01*
X531651Y574200D01*
X532647Y578200D02*
X535633Y578200D01*
X382889Y392320D02*
X380898Y390320D01*
X378907Y390320D01*
X376916Y392320D01*
X376916Y398320D01*
X378907Y400320D01*
X380898Y400320D01*
X382889Y398320D01*
X385876Y392320D02*
X387867Y390320D01*
X389858Y390320D01*
X391849Y392320D01*
X391849Y396320D01*
X391849Y398320D01*
X389858Y400320D01*
X387867Y400320D01*
X385876Y398320D01*
X385876Y396320D01*
X387867Y394320D01*
X389858Y394320D01*
X391849Y396320D01*
X464169Y465980D02*
X462178Y463980D01*
X460187Y463980D01*
X458196Y465980D01*
X458196Y471980D01*
X460187Y473980D01*
X462178Y473980D01*
X464169Y471980D01*
X467156Y471980D02*
X469147Y473980D01*
X471138Y473980D01*
X473129Y471980D01*
X473129Y470980D01*
X467156Y463980D01*
X473129Y463980D01*
X473129Y464980D01*
X497189Y465980D02*
X495198Y463980D01*
X493207Y463980D01*
X491216Y465980D01*
X491216Y471980D01*
X493207Y473980D01*
X495198Y473980D01*
X497189Y471980D01*
X501171Y471980D02*
X503162Y473980D01*
X503162Y463980D01*
X500176Y463980D02*
X506149Y463980D01*
G54D15*
X525805Y540400D02*
X525805Y503049D01*
G75*
D01*
G03X532129Y496725I6324J0*
G01*
X544480Y496725D01*
G75*
D01*
G03X550805Y503049I1J6324*
G01*
X550805Y540400D01*
G74*
D01*
G03X544480Y546725I6325J0*
G01*
X532129Y546725D01*
G75*
D01*
G03X525805Y540400I1J-6325*
G01*
X168120Y373180D02*
X88120Y373180D01*
X88120Y398680D01*
X168120Y398680D01*
X168120Y373180D01*
X184120Y386080D02*
X168120Y386080D01*
X88120Y386080D02*
X73120Y386080D01*
X168120Y403660D02*
X88120Y403660D01*
X88120Y429160D01*
X168120Y429160D01*
X168120Y403660D01*
X184120Y416560D02*
X168120Y416560D01*
X88120Y416560D02*
X73120Y416560D01*
X338600Y403660D02*
X258600Y403660D01*
X258600Y429160D01*
X338600Y429160D01*
X338600Y403660D01*
X354600Y416560D02*
X338600Y416560D01*
X258600Y416560D02*
X243600Y416560D01*
X338600Y373180D02*
X258600Y373180D01*
X258600Y398680D01*
X338600Y398680D01*
X338600Y373180D01*
X354600Y386080D02*
X338600Y386080D01*
X258600Y386080D02*
X243600Y386080D01*
X513560Y373180D02*
X433560Y373180D01*
X433560Y398680D01*
X513560Y398680D01*
X513560Y373180D01*
X529560Y386080D02*
X513560Y386080D01*
X433560Y386080D02*
X418560Y386080D01*
X515995Y451991D02*
X515995Y414640D01*
G75*
D01*
G03X522320Y408315I6325J0*
G01*
X534671Y408315D01*
G75*
D01*
G03X540995Y414640I-1J6325*
G01*
X540995Y451991D01*
G74*
D01*
G03X534671Y458315I6324J0*
G01*
X522320Y458315D01*
G75*
D01*
G03X515995Y451991I-1J-6324*
G01*
X381225Y421220D02*
X381225Y408869D01*
G75*
D01*
G03X387549Y402545I6324J0*
G01*
X424900Y402545D01*
G75*
D01*
G03X431225Y408869I1J6324*
G01*
X431225Y421220D01*
G74*
D01*
G03X424900Y427545I6325J0*
G01*
X387549Y427545D01*
G75*
D01*
G03X381225Y421220I1J-6325*
G01*
X455035Y453191D02*
X455035Y415840D01*
G75*
D01*
G03X461360Y409515I6325J0*
G01*
X473711Y409515D01*
G75*
D01*
G03X480035Y415840I-1J6325*
G01*
X480035Y453191D01*
G74*
D01*
G03X473711Y459515I6324J0*
G01*
X461360Y459515D01*
G75*
D01*
G03X455035Y453191I-1J-6324*
G01*
X485165Y453191D02*
X485165Y415840D01*
G75*
D01*
G03X491489Y409515I6324J-1*
G01*
X503840Y409515D01*
G75*
D01*
G03X510165Y415840I0J6325*
G01*
X510165Y453191D01*
G74*
D01*
G03X503840Y459515I6325J1*
G01*
X491489Y459515D01*
G75*
D01*
G03X485165Y453191I0J-6324*
G01*
X486565Y737871D02*
X486565Y725520D01*
G75*
D01*
G03X492889Y719195I6324J-1*
G01*
X530240Y719195D01*
G75*
D01*
G03X536565Y725520I0J6325*
G01*
X536565Y737871D01*
G74*
D01*
G03X530240Y744195I6325J1*
G01*
X492889Y744195D01*
G75*
D01*
G03X486565Y737871I0J-6324*
G01*
G54D16*
X120376Y382700D02*
X120376Y392700D01*
X124358Y392700D01*
X126349Y390700D01*
X126349Y389700D01*
X124358Y387700D01*
X120376Y387700D01*
X121371Y387700D02*
X126349Y382700D01*
X129336Y390700D02*
X131327Y392700D01*
X133318Y392700D01*
X135309Y390700D01*
X135309Y389700D01*
X129336Y382700D01*
X135309Y382700D01*
X135309Y383700D01*
X120376Y413180D02*
X120376Y423180D01*
X124358Y423180D01*
X126349Y421180D01*
X126349Y420180D01*
X124358Y418180D01*
X120376Y418180D01*
X121371Y418180D02*
X126349Y413180D01*
X130331Y422180D02*
X131327Y423180D01*
X133318Y423180D01*
X135309Y421180D01*
X135309Y419180D01*
X134313Y418180D01*
X135309Y417180D01*
X135309Y415180D01*
X133318Y413180D01*
X131327Y413180D01*
X130331Y414180D01*
X131327Y418180D02*
X134313Y418180D01*
X290556Y410640D02*
X290556Y420640D01*
X294538Y420640D01*
X296529Y418640D01*
X296529Y417640D01*
X294538Y415640D01*
X290556Y415640D01*
X291551Y415640D02*
X296529Y410640D01*
X305489Y420640D02*
X299516Y420640D01*
X299516Y416640D01*
X303498Y416640D01*
X305489Y414640D01*
X305489Y412640D01*
X303498Y410640D01*
X299516Y410640D01*
X290556Y380160D02*
X290556Y390160D01*
X294538Y390160D01*
X296529Y388160D01*
X296529Y387160D01*
X294538Y385160D01*
X290556Y385160D01*
X291551Y385160D02*
X296529Y380160D01*
X305489Y384160D02*
X299516Y384160D01*
X304493Y390160D01*
X304493Y380160D01*
X303498Y380160D02*
X305489Y380160D01*
X465816Y380160D02*
X465816Y390160D01*
X469798Y390160D01*
X471789Y388160D01*
X471789Y387160D01*
X469798Y385160D01*
X465816Y385160D01*
X466811Y385160D02*
X471789Y380160D01*
X475771Y388160D02*
X477762Y390160D01*
X477762Y380160D01*
X474776Y380160D02*
X480749Y380160D01*
X489569Y499000D02*
X487578Y497000D01*
X485587Y497000D01*
X483596Y499000D01*
X483596Y505000D01*
X485587Y507000D01*
X487578Y507000D01*
X489569Y505000D01*
X497533Y507000D02*
X494547Y507000D01*
X492556Y505000D01*
X492556Y501000D01*
X492556Y499000D01*
X494547Y497000D01*
X496538Y497000D01*
X498529Y499000D01*
X498529Y501000D01*
X496538Y503000D01*
X494547Y503000D01*
X492556Y501000D01*
X453840Y522240D02*
G75*
D01*
G02X453840Y522240I31500J0*
G01*
X375920Y533400D02*
X30480Y533400D01*
X30480Y462280D01*
X375920Y462280D01*
X375920Y502840D02*
X375484Y502821D01*
X375052Y502764D01*
X374626Y502670D01*
X374210Y502538D01*
X373807Y502372D01*
X373420Y502170D01*
X373052Y501936D01*
X372706Y501670D01*
X372384Y501376D01*
X372090Y501054D01*
X371824Y500708D01*
X371590Y500340D01*
X371388Y499953D01*
X371222Y499550D01*
X371090Y499134D01*
X370996Y498708D01*
X370939Y498276D01*
X370920Y497840D01*
X370939Y497404D01*
X370996Y496972D01*
X371090Y496546D01*
X371222Y496130D01*
X371388Y495727D01*
X371590Y495340D01*
X371824Y494972D01*
X372090Y494626D01*
X372384Y494304D01*
X372706Y494010D01*
X373052Y493744D01*
X373420Y493510D01*
X373807Y493308D01*
X374210Y493142D01*
X374626Y493010D01*
X375052Y492916D01*
X375484Y492859D01*
X375920Y492840D01*
X375920Y462280D02*
X375920Y492840D01*
X375920Y502840D02*
X375920Y533400D01*
X353060Y515620D02*
G75*
D01*
G02X353060Y515620I5080J0*
G01*
X479580Y917440D02*
X479580Y789440D01*
X546580Y789440D01*
X546580Y917440D01*
X479580Y917440D01*
X415431Y436124D02*
X423898Y428565D01*
X415431Y428565D02*
X423898Y436124D01*
X429542Y434612D02*
X432364Y436124D01*
X432364Y428565D01*
X428131Y428565D02*
X436598Y428565D01*
X391160Y528532D02*
X391160Y465032D01*
X397510Y528532D02*
X397510Y465032D01*
X435610Y528532D02*
X435610Y465032D01*
X441960Y528532D02*
X441960Y465032D01*
X407670Y500592D02*
X407670Y492972D01*
X425450Y492972D02*
X425450Y500592D01*
X441960Y528532D02*
X441863Y530746D01*
X441574Y532943D01*
X441095Y535106D01*
X440428Y537219D01*
X439580Y539266D01*
X438557Y541232D01*
X437366Y543101D01*
X436018Y544859D01*
X434521Y546493D01*
X432887Y547990D01*
X431129Y549338D01*
X429260Y550529D01*
X427295Y551552D01*
X425247Y552400D01*
X423134Y553067D01*
X420971Y553546D01*
X418774Y553835D01*
X416560Y553932D01*
X414346Y553835D01*
X412149Y553546D01*
X409986Y553067D01*
X407873Y552400D01*
X405826Y551552D01*
X403860Y550529D01*
X401991Y549338D01*
X400233Y547990D01*
X398599Y546493D01*
X397102Y544859D01*
X395754Y543101D01*
X394563Y541232D01*
X393540Y539267D01*
X392692Y537219D01*
X392025Y535106D01*
X391546Y532943D01*
X391257Y530746D01*
X391160Y528532D01*
X391160Y528532D01*
X435610Y528532D02*
X435538Y530192D01*
X435321Y531840D01*
X434961Y533462D01*
X434461Y535047D01*
X433825Y536583D01*
X433058Y538057D01*
X432165Y539459D01*
X431153Y540777D01*
X430030Y542002D01*
X428805Y543125D01*
X427487Y544137D01*
X426085Y545030D01*
X424611Y545797D01*
X423075Y546433D01*
X421491Y546933D01*
X419868Y547293D01*
X418220Y547510D01*
X416560Y547582D01*
X414900Y547510D01*
X413252Y547293D01*
X411630Y546933D01*
X410045Y546433D01*
X408509Y545797D01*
X407035Y545030D01*
X405633Y544137D01*
X404315Y543125D01*
X403090Y542002D01*
X401967Y540777D01*
X400955Y539459D01*
X400062Y538057D01*
X399295Y536583D01*
X398659Y535047D01*
X398159Y533463D01*
X397799Y531840D01*
X397582Y530192D01*
X397510Y528532D01*
X397510Y528532D01*
X425450Y500592D02*
X407670Y500592D01*
X411480Y503132D02*
X421640Y503132D01*
X421640Y504402D02*
X411480Y504402D01*
X416560Y504402D02*
X416560Y508212D01*
X391160Y465032D02*
X391257Y462818D01*
X391546Y460621D01*
X392025Y458458D01*
X392692Y456345D01*
X393540Y454297D01*
X394563Y452332D01*
X395754Y450463D01*
X397102Y448705D01*
X398599Y447071D01*
X400233Y445574D01*
X401991Y444226D01*
X403860Y443035D01*
X405825Y442012D01*
X407873Y441164D01*
X409986Y440497D01*
X412149Y440018D01*
X414346Y439729D01*
X416560Y439632D01*
X418774Y439729D01*
X420971Y440018D01*
X423134Y440497D01*
X425247Y441164D01*
X427295Y442012D01*
X429260Y443035D01*
X431129Y444226D01*
X432887Y445574D01*
X434521Y447071D01*
X436018Y448705D01*
X437366Y450463D01*
X438557Y452332D01*
X439580Y454297D01*
X440428Y456345D01*
X441095Y458458D01*
X441574Y460621D01*
X441863Y462818D01*
X441960Y465032D01*
X441960Y465032D01*
X397510Y465032D02*
X397582Y463372D01*
X397799Y461724D01*
X398159Y460101D01*
X398659Y458517D01*
X399295Y456981D01*
X400062Y455507D01*
X400955Y454105D01*
X401967Y452787D01*
X403090Y451562D01*
X404315Y450439D01*
X405633Y449427D01*
X407035Y448534D01*
X408509Y447767D01*
X410045Y447131D01*
X411629Y446631D01*
X413252Y446271D01*
X414900Y446054D01*
X416560Y445982D01*
X418220Y446054D01*
X419868Y446271D01*
X421491Y446631D01*
X423075Y447131D01*
X424611Y447767D01*
X426085Y448534D01*
X427487Y449427D01*
X428805Y450439D01*
X430030Y451562D01*
X431153Y452787D01*
X432165Y454105D01*
X433058Y455507D01*
X433825Y456981D01*
X434461Y458517D01*
X434961Y460101D01*
X435321Y461724D01*
X435538Y463372D01*
X435610Y465032D01*
X435610Y465032D01*
X425450Y492972D02*
X407670Y492972D01*
X421640Y490432D02*
X411480Y490432D01*
X421640Y489162D02*
X411480Y489162D01*
X416560Y489162D02*
X416560Y485352D01*
X137160Y612140D02*
X137160Y586740D01*
X340360Y586740D02*
X340360Y612140D01*
X137160Y586740D02*
X340360Y586740D01*
X340360Y612140D02*
X137160Y612140D01*
X22200Y993140D02*
X457200Y993140D01*
X457200Y577840D01*
X22200Y577840D01*
X22200Y993140D01*
X487680Y948267D02*
X489156Y948331D01*
X490620Y948524D01*
X492063Y948844D01*
X493472Y949288D01*
X494836Y949853D01*
X496147Y950535D01*
X497393Y951329D01*
X498565Y952228D01*
X499654Y953226D01*
X500652Y954315D01*
X501551Y955487D01*
X502345Y956733D01*
X503027Y958044D01*
X503592Y959408D01*
X504036Y960817D01*
X504356Y962260D01*
X504549Y963724D01*
X504613Y965200D01*
X504549Y966676D01*
X504356Y968140D01*
X504036Y969583D01*
X503592Y970992D01*
X503027Y972356D01*
X502345Y973667D01*
X501551Y974913D01*
X500652Y976085D01*
X499654Y977174D01*
X498565Y978172D01*
X497393Y979071D01*
X496147Y979865D01*
X494836Y980547D01*
X493472Y981112D01*
X492063Y981556D01*
X490620Y981876D01*
X489156Y982069D01*
X487680Y982133D01*
X486204Y982069D01*
X484740Y981876D01*
X483297Y981556D01*
X481888Y981112D01*
X480524Y980547D01*
X479213Y979865D01*
X477967Y979071D01*
X476795Y978172D01*
X475706Y977174D01*
X474708Y976085D01*
X473809Y974913D01*
X473015Y973667D01*
X472333Y972356D01*
X471768Y970992D01*
X471324Y969583D01*
X471004Y968140D01*
X470811Y966676D01*
X470747Y965200D01*
X470811Y963724D01*
X471004Y962260D01*
X471324Y960817D01*
X471768Y959408D01*
X472333Y958044D01*
X473015Y956733D01*
X473809Y955487D01*
X474708Y954315D01*
X475706Y953226D01*
X476795Y952228D01*
X477967Y951329D01*
X479213Y950535D01*
X480524Y949853D01*
X481888Y949288D01*
X483297Y948844D01*
X484740Y948524D01*
X486204Y948331D01*
X487680Y948267D01*
X487680Y948267D01*
X533400Y948267D02*
X534876Y948331D01*
X536340Y948524D01*
X537783Y948844D01*
X539192Y949288D01*
X540556Y949853D01*
X541867Y950535D01*
X543113Y951329D01*
X544285Y952228D01*
X545374Y953226D01*
X546372Y954315D01*
X547271Y955487D01*
X548065Y956733D01*
X548747Y958044D01*
X549312Y959408D01*
X549756Y960817D01*
X550076Y962260D01*
X550269Y963724D01*
X550333Y965200D01*
X550269Y966676D01*
X550076Y968140D01*
X549756Y969583D01*
X549312Y970992D01*
X548747Y972356D01*
X548065Y973667D01*
X547271Y974913D01*
X546372Y976085D01*
X545374Y977174D01*
X544285Y978172D01*
X543113Y979071D01*
X541867Y979865D01*
X540556Y980547D01*
X539192Y981112D01*
X537783Y981556D01*
X536340Y981876D01*
X534876Y982069D01*
X533400Y982133D01*
X531924Y982069D01*
X530460Y981876D01*
X529017Y981556D01*
X527608Y981112D01*
X526244Y980547D01*
X524933Y979865D01*
X523687Y979071D01*
X522515Y978172D01*
X521426Y977174D01*
X520428Y976085D01*
X519529Y974913D01*
X518735Y973667D01*
X518053Y972356D01*
X517488Y970992D01*
X517044Y969583D01*
X516724Y968140D01*
X516531Y966676D01*
X516467Y965200D01*
X516531Y963724D01*
X516724Y962260D01*
X517044Y960817D01*
X517488Y959408D01*
X518053Y958044D01*
X518735Y956733D01*
X519529Y955487D01*
X520428Y954315D01*
X521426Y953226D01*
X522515Y952228D01*
X523687Y951329D01*
X524933Y950535D01*
X526244Y949853D01*
X527608Y949288D01*
X529017Y948844D01*
X530460Y948524D01*
X531924Y948331D01*
X533400Y948267D01*
X533400Y948267D01*
X509889Y758080D02*
X507898Y756080D01*
X505907Y756080D01*
X503916Y758080D01*
X503916Y764080D01*
X505907Y766080D01*
X507898Y766080D01*
X509889Y764080D01*
X518849Y766080D02*
X512876Y766080D01*
X512876Y762080D01*
X516858Y762080D01*
X518849Y760080D01*
X518849Y758080D01*
X516858Y756080D01*
X512876Y756080D01*
G54D17*
X21846Y253833D02*
X21846Y257247D01*
X26989Y257247D01*
X30417Y253833D01*
X30417Y250420D01*
X26989Y247007D01*
X16703Y247007D01*
X13274Y250420D01*
X13274Y257247D01*
X26989Y272607D02*
X30417Y269193D01*
X30417Y265780D01*
X26989Y262367D01*
X16703Y262367D01*
X13274Y265780D01*
X13274Y269193D01*
X16703Y272607D01*
X18417Y279433D02*
X18417Y284553D01*
X20131Y286260D01*
X28703Y286260D01*
X30417Y284553D01*
X30417Y279433D01*
X28703Y277727D01*
X25274Y277727D01*
X23560Y279433D01*
X23560Y286260D01*
X28703Y286260D02*
X30417Y287967D01*
X13274Y294793D02*
X26989Y294793D01*
X30417Y298207D01*
X28703Y316980D02*
X30417Y315273D01*
X30417Y311860D01*
X26989Y308447D01*
X21846Y308447D01*
X18417Y311860D01*
X18417Y315273D01*
X20131Y316980D01*
X14989Y340873D02*
X13274Y342580D01*
X13274Y345993D01*
X16703Y349407D01*
X20131Y349407D01*
X21846Y347700D01*
X23560Y349407D01*
X26989Y349407D01*
X30417Y345993D01*
X30417Y342580D01*
X28703Y340873D01*
X21846Y342580D02*
X21846Y347700D01*
X30417Y359647D02*
X28703Y359647D01*
X16703Y369887D02*
X13274Y373300D01*
X13274Y376713D01*
X16703Y380127D01*
X26989Y380127D01*
X30417Y376713D01*
X30417Y373300D01*
X26989Y369887D01*
X16703Y369887D01*
X16703Y380127D02*
X26989Y369887D01*
X179507Y27877D02*
X182920Y31306D01*
X186333Y31306D01*
X189747Y27877D01*
X189747Y17591D01*
X186333Y14163D01*
X182920Y14163D01*
X179507Y17591D01*
X179507Y27877D01*
X189747Y27877D02*
X179507Y17591D01*
X183753Y121857D02*
X187167Y125286D01*
X187167Y108143D01*
X182047Y108143D02*
X192287Y108143D01*
X184627Y288483D02*
X184627Y297054D01*
X189747Y302197D01*
X189747Y305626D01*
X179507Y305626D01*
X179507Y302197D01*
X189747Y206440D02*
X179507Y206440D01*
X188040Y216726D01*
X188040Y199583D01*
X186333Y199583D02*
X189747Y199583D01*
X308253Y288483D02*
X304840Y288483D01*
X301427Y291911D01*
X301427Y295340D01*
X303133Y297054D01*
X301427Y298769D01*
X301427Y302197D01*
X304840Y305626D01*
X308253Y305626D01*
X311667Y302197D01*
X311667Y298769D01*
X309960Y297054D01*
X311667Y295340D01*
X311667Y291911D01*
X308253Y288483D01*
X303133Y297054D02*
X309960Y297054D01*
X314207Y216726D02*
X303967Y216726D01*
X303967Y209869D01*
X310793Y209869D01*
X314207Y206440D01*
X314207Y203011D01*
X310793Y199583D01*
X303967Y199583D01*
X301427Y124397D02*
X304840Y127826D01*
X308253Y127826D01*
X311667Y124397D01*
X311667Y122683D01*
X301427Y110683D01*
X311667Y110683D01*
X311667Y112397D01*
X425053Y123571D02*
X426760Y125286D01*
X430173Y125286D01*
X433587Y121857D01*
X433587Y118429D01*
X431880Y116714D01*
X433587Y115000D01*
X433587Y111571D01*
X430173Y108143D01*
X426760Y108143D01*
X425053Y109857D01*
X426760Y116714D02*
X431880Y116714D01*
X431880Y219266D02*
X426760Y219266D01*
X423347Y215837D01*
X423347Y208980D01*
X423347Y205551D01*
X426760Y202123D01*
X430173Y202123D01*
X433587Y205551D01*
X433587Y208980D01*
X430173Y212409D01*
X426760Y212409D01*
X423347Y208980D01*
X423347Y296991D02*
X426760Y293563D01*
X430173Y293563D01*
X433587Y296991D01*
X433587Y303849D01*
X433587Y307277D01*
X430173Y310706D01*
X426760Y310706D01*
X423347Y307277D01*
X423347Y303849D01*
X426760Y300420D01*
X430173Y300420D01*
X433587Y303849D01*
X556453Y220277D02*
X546213Y211706D01*
X556453Y203134D01*
X559877Y108387D02*
X551306Y118627D01*
X542734Y108387D01*
X548680Y307277D02*
X548680Y293563D01*
X552093Y307277D02*
X552093Y293563D01*
X545267Y302134D02*
X555507Y302134D01*
X545267Y298706D02*
X555507Y298706D01*
X542734Y37347D02*
X551306Y27107D01*
X559877Y37347D01*
X303967Y26989D02*
X314207Y26989D01*
X303967Y20131D02*
X314207Y20131D01*
G54D18*
G36*
X472009Y508654D02*
X472009Y508654D01*
X474499Y494460D01*
X474499Y508654D01*
X472009Y508654D01*
D02*
G37*
X474499Y494460D01*
X474499Y508654D01*
X472009Y508654D01*
G36*
X474499Y494460D02*
X474499Y494460D01*
X472009Y508654D01*
X472009Y502809D01*
X474499Y494460D01*
D02*
G37*
X472009Y508654D01*
X472009Y502809D01*
X474499Y494460D01*
G36*
X472009Y502809D02*
X472009Y502809D01*
X472009Y500348D01*
X474499Y494460D01*
X472009Y502809D01*
D02*
G37*
X472009Y500348D01*
X474499Y494460D01*
X472009Y502809D01*
G36*
X472009Y500348D02*
X472009Y500348D01*
X472009Y502809D01*
X466164Y502809D01*
X472009Y500348D01*
D02*
G37*
X472009Y502809D01*
X466164Y502809D01*
X472009Y500348D01*
G36*
X466164Y502809D02*
X466164Y502809D01*
X466164Y500348D01*
X472009Y500348D01*
X466164Y502809D01*
D02*
G37*
X466164Y500348D01*
X472009Y500348D01*
X466164Y502809D01*
G36*
X474499Y500348D02*
X474499Y500348D01*
X480344Y500348D01*
X474499Y502809D01*
X474499Y500348D01*
D02*
G37*
X480344Y500348D01*
X474499Y502809D01*
X474499Y500348D01*
G36*
X474499Y500348D01*
X474499Y508654D01*
X474499Y500348D01*
D02*
G37*
X474499Y508654D01*
X474499Y500348D01*
G36*
X474499Y500348D01*
X474499Y508654D01*
X474499Y494460D01*
X474499Y500348D01*
D02*
G37*
X474499Y508654D01*
X474499Y494460D01*
X474499Y500348D01*
G36*
X474499Y502809D02*
X474499Y502809D01*
X480344Y500348D01*
X480344Y502809D01*
X474499Y502809D01*
D02*
G37*
X480344Y500348D01*
X480344Y502809D01*
X474499Y502809D01*
G36*
X474499Y494460D02*
X474499Y494460D01*
X472009Y500348D01*
X472009Y494460D01*
X474499Y494460D01*
D02*
G37*
X472009Y500348D01*
X472009Y494460D01*
X474499Y494460D01*
G54D19*
X431800Y22860D02*
X431800Y27940D01*
X424180Y22860D01*
X431800Y17780D01*
X431800Y22860D01*
X447040Y22860D02*
X431800Y22860D01*
X447040Y38100D02*
X447040Y22860D01*
G54D20*
X475500Y668660D02*
X540500Y668660D01*
X475500Y652660D02*
X475500Y668660D01*
X540500Y668660D02*
X540500Y652660D01*
G54D21*
X541250Y698160D02*
G75*
D01*
G02X541250Y698160I1250J0*
G01*
G54D22*
X147309Y631190D02*
X149837Y633730D01*
X149837Y621030D01*
X146044Y621030D02*
X153630Y621030D01*
X328902Y621030D02*
X326373Y621030D01*
X323844Y623570D01*
X323844Y626110D01*
X325109Y627380D01*
X323844Y628650D01*
X323844Y631190D01*
X326373Y633730D01*
X328902Y633730D01*
X331430Y631190D01*
X331430Y628650D01*
X330166Y627380D01*
X331430Y626110D01*
X331430Y623570D01*
X328902Y621030D01*
X325109Y627380D02*
X330166Y627380D01*
G54D23*
X9702Y47769D02*
X11551Y47769D01*
X11551Y44983D01*
X9702Y43126D01*
X7853Y43126D01*
X6004Y44983D01*
X6004Y50554D01*
X7853Y52411D01*
X11551Y52411D01*
X14324Y46840D02*
X17098Y49626D01*
X18022Y49626D01*
X19871Y47769D01*
X14324Y43126D02*
X14324Y49626D01*
X23569Y49626D02*
X26342Y49626D01*
X27267Y48697D01*
X27267Y44054D01*
X26342Y43126D01*
X23569Y43126D01*
X22644Y44054D01*
X22644Y45911D01*
X23569Y46840D01*
X27267Y46840D01*
X27267Y44054D02*
X28191Y43126D01*
X30964Y44983D02*
X32813Y43126D01*
X34662Y43126D01*
X36511Y44983D01*
X36511Y47769D01*
X34662Y49626D01*
X32813Y49626D01*
X30964Y47769D01*
X30964Y40340D02*
X30964Y49626D01*
X39284Y47769D02*
X41133Y49626D01*
X42982Y49626D01*
X44831Y47769D01*
X44831Y43126D01*
X39284Y52411D02*
X39284Y43126D01*
X50378Y43126D02*
X50378Y48697D01*
X50378Y50554D02*
X50378Y51483D01*
X60547Y44054D02*
X59622Y43126D01*
X57773Y43126D01*
X55924Y44983D01*
X55924Y47769D01*
X57773Y49626D01*
X59622Y49626D01*
X60547Y48697D01*
X64244Y44983D02*
X66093Y43126D01*
X67942Y43126D01*
X69791Y44983D01*
X64244Y47769D01*
X66093Y49626D01*
X67942Y49626D01*
X69791Y47769D01*
X10627Y31054D02*
X9702Y30126D01*
X7853Y30126D01*
X6004Y31983D01*
X6004Y34769D01*
X7853Y36626D01*
X9702Y36626D01*
X10627Y35697D01*
X15249Y36626D02*
X18022Y36626D01*
X18947Y35697D01*
X18947Y31054D01*
X18022Y30126D01*
X15249Y30126D01*
X14324Y31054D01*
X14324Y32911D01*
X15249Y33840D01*
X18947Y33840D01*
X18947Y31054D02*
X19871Y30126D01*
X23569Y39411D02*
X23569Y31983D01*
X25418Y30126D01*
X35587Y31054D02*
X34662Y30126D01*
X32813Y30126D01*
X30964Y31983D01*
X30964Y34769D01*
X32813Y36626D01*
X34662Y36626D01*
X35587Y35697D01*
X39284Y36626D02*
X39284Y31983D01*
X41133Y30126D01*
X42982Y30126D01*
X44831Y31983D01*
X44831Y36626D01*
X44831Y31983D02*
X44831Y30126D01*
X48529Y39411D02*
X48529Y31983D01*
X50378Y30126D01*
X56849Y36626D02*
X59622Y36626D01*
X60547Y35697D01*
X60547Y31054D01*
X59622Y30126D01*
X56849Y30126D01*
X55924Y31054D01*
X55924Y32911D01*
X56849Y33840D01*
X60547Y33840D01*
X60547Y31054D02*
X61471Y30126D01*
X68867Y31054D02*
X67942Y30126D01*
X67018Y31054D01*
X67018Y39411D01*
X65169Y36626D02*
X68867Y36626D01*
X72564Y31983D02*
X74413Y30126D01*
X76262Y30126D01*
X78111Y31983D01*
X78111Y34769D01*
X76262Y36626D01*
X74413Y36626D01*
X72564Y34769D01*
X72564Y31983D01*
X80884Y33840D02*
X83658Y36626D01*
X84582Y36626D01*
X86431Y34769D01*
X80884Y30126D02*
X80884Y36626D01*
X26153Y17296D02*
X28410Y12005D01*
X30668Y17296D01*
X40451Y18808D02*
X41204Y19564D01*
X42709Y19564D01*
X44214Y18052D01*
X44214Y16540D01*
X43462Y15784D01*
X44214Y15028D01*
X44214Y13516D01*
X42709Y12005D01*
X41204Y12005D01*
X40451Y12760D01*
X41204Y15784D02*
X43462Y15784D01*
X48730Y12005D02*
X48730Y12760D01*
X53245Y18052D02*
X54750Y19564D01*
X56255Y19564D01*
X57760Y18052D01*
X57760Y13516D01*
X56255Y12005D01*
X54750Y12005D01*
X53245Y13516D01*
X53245Y18052D01*
X57760Y18052D02*
X53245Y13516D01*
X31233Y161804D02*
X33490Y154245D01*
X35748Y161804D01*
X42521Y155756D02*
X41016Y154245D01*
X39511Y154245D01*
X38006Y155756D01*
X38006Y160292D01*
X39511Y161804D01*
X41016Y161804D01*
X42521Y160292D01*
X49294Y155756D02*
X47789Y154245D01*
X46284Y154245D01*
X44779Y155756D01*
X44779Y160292D01*
X46284Y161804D01*
X47789Y161804D01*
X49294Y160292D01*
X51552Y154245D02*
X56067Y154245D01*
X34243Y130084D02*
X35748Y130084D01*
X35748Y127816D01*
X34243Y126305D01*
X32738Y126305D01*
X31233Y127816D01*
X31233Y132352D01*
X32738Y133864D01*
X35748Y133864D01*
X38006Y126305D02*
X38006Y133864D01*
X42521Y126305D01*
X42521Y133864D01*
X44779Y126305D02*
X47789Y126305D01*
X49294Y127816D01*
X49294Y132352D01*
X47789Y133864D01*
X44779Y133864D01*
X45531Y133864D02*
X45531Y126305D01*
X51552Y126305D02*
X56067Y126305D01*
X31233Y179645D02*
X34243Y179645D01*
X35748Y181156D01*
X35748Y185692D01*
X34243Y187204D01*
X31233Y187204D01*
X31985Y187204D02*
X31985Y179645D01*
X40263Y179645D02*
X40263Y187204D01*
X38006Y187204D02*
X42521Y187204D01*
X44779Y179645D02*
X44779Y187204D01*
X47789Y187204D01*
X49294Y185692D01*
X49294Y184936D01*
X47789Y183424D01*
X44779Y183424D01*
X45531Y183424D02*
X49294Y179645D01*
X33490Y205045D02*
X33490Y212604D01*
X31233Y212604D02*
X35748Y212604D01*
X38006Y212604D02*
X42521Y205045D01*
X38006Y205045D02*
X42521Y212604D01*
X31233Y230445D02*
X31233Y238004D01*
X34243Y238004D01*
X35748Y236492D01*
X35748Y235736D01*
X34243Y234224D01*
X31233Y234224D01*
X31985Y234224D02*
X35748Y230445D01*
X38006Y238004D02*
X42521Y230445D01*
X38006Y230445D02*
X42521Y238004D01*
X482129Y937804D02*
X483635Y937804D01*
X483635Y935536D01*
X482129Y934025D01*
X480624Y934025D01*
X479119Y935536D01*
X479119Y940072D01*
X480624Y941584D01*
X483635Y941584D01*
X485892Y934025D02*
X485892Y941584D01*
X490408Y934025D01*
X490408Y941584D01*
X492665Y934025D02*
X495676Y934025D01*
X497181Y935536D01*
X497181Y940072D01*
X495676Y941584D01*
X492665Y941584D01*
X493418Y941584D02*
X493418Y934025D01*
X521453Y934025D02*
X525968Y937804D01*
X521453Y941584D01*
X537257Y934025D02*
X537257Y937804D01*
X539514Y940072D01*
X539514Y941584D01*
X534999Y941584D01*
X534999Y940072D01*
X541772Y941584D02*
X544030Y934025D01*
X546287Y941584D01*
G54D24*
X-5080Y-2540D02*
X-5080Y97968D01*
X-5080Y-2540D02*
X52078Y-2540D01*
X566500Y-2540D02*
X509342Y-2540D01*
X566500Y-2540D02*
X566500Y97968D01*
X566500Y1002540D02*
X566500Y902032D01*
X566500Y1002540D02*
X509342Y1002540D01*
X-5080Y1002540D02*
X52078Y1002540D01*
X-5080Y1002540D02*
X-5080Y902032D01*
X-55080Y-2540D02*
X-155080Y-2540D01*
X-105080Y-52540D02*
X-105080Y47460D01*
X-142580Y-2540D02*
G75*
D01*
G02X-142580Y-2540I37500J0*
G01*
X616500Y-2540D02*
X716500Y-2540D01*
X666500Y-52540D02*
X666500Y47460D01*
X629000Y-2540D02*
G75*
D01*
G02X629000Y-2540I37500J0*
G01*
X654000Y-2540D02*
G75*
D01*
G02X654000Y-2540I12500J0*
G01*
X-55080Y1002540D02*
X-155080Y1002540D01*
X-105080Y952540D02*
X-105080Y1052540D01*
X-142580Y1002540D02*
G75*
D01*
G02X-142580Y1002540I37500J0*
G01*
X-130080Y1002540D02*
G75*
D01*
G02X-130080Y1002540I25000J0*
G01*
X-117580Y1002540D02*
G75*
D01*
G02X-117580Y1002540I12500J0*
G01*

M02*
